<svg width="408" height="355" viewBox="0 0 408 355" fill="none" xmlns="http://www.w3.org/2000/svg">
<path d="M319.509 231.593C313.055 236.958 315.194 268.269 295.237 254.785C275.281 241.301 309.32 233.303 307.373 225.66C304.648 214.959 259.639 227.817 267.19 207.321C274.741 186.826 301.648 217.649 308.722 210.019C315.219 203.009 282.832 177.657 297.935 173.342C313.037 169.026 309.785 205.707 319.509 205.704C327.075 205.701 325.666 170.645 339.577 183.05C353.489 195.456 323.079 207.678 327.061 215.376C330.085 221.227 354.028 206.782 352.95 220.266C351.871 233.75 326.296 225.95 319.509 231.593Z" fill="#38BFF2"/>
<path d="M315.194 215.558C315.194 215.558 329.758 233.211 328.139 281.215" stroke="#1A2E35" stroke-width="1.33333" stroke-miterlimit="10" stroke-linecap="round" stroke-linejoin="round"/>
<path d="M286.823 240.535C289.404 235.342 310.794 231.798 298.554 220.526C286.314 209.255 286.353 233.412 280.904 233.319C273.276 233.19 274.76 200.884 262.182 209.223C249.604 217.56 274.608 230.745 270.603 236.715C266.923 242.198 244.727 224.459 244.229 235.298C243.73 246.138 267.873 238.116 269.418 244.654C270.62 249.741 246.828 254.371 257.382 261.75C267.935 269.128 271.314 246.739 277.123 248.191C281.537 249.294 275.636 267.689 284.529 264.818C293.422 261.948 284.11 245.995 286.823 240.535Z" fill="#38BFF2"/>
<g opacity="0.300003">
<g opacity="0.300003">
<path opacity="0.300003" d="M286.823 240.535C289.403 235.342 310.794 231.798 298.553 220.526C286.313 209.255 286.353 233.411 280.903 233.319C273.275 233.19 274.76 200.884 262.181 209.223C249.603 217.56 274.607 230.745 270.602 236.715C266.923 242.198 244.726 224.458 244.228 235.298C243.729 246.138 267.873 238.116 269.418 244.654C270.62 249.741 246.828 254.371 257.381 261.749C267.935 269.128 271.314 246.739 277.122 248.191C281.537 249.294 275.635 267.689 284.528 264.818C293.422 261.948 284.109 245.995 286.823 240.535Z" fill="black"/>
</g>
</g>
<path d="M275.821 240.762C275.821 240.762 317.265 236.447 321.354 281.214" stroke="#1A2E35" stroke-width="1.33333" stroke-miterlimit="10" stroke-linecap="round" stroke-linejoin="round"/>
<path d="M354.829 235.908C361.283 241.273 359.144 272.583 379.1 259.1C399.057 245.615 365.019 237.619 366.965 229.975C369.69 219.273 414.698 232.132 407.147 211.636C399.596 191.14 372.689 221.964 365.616 214.334C359.119 207.323 391.506 181.972 376.404 177.657C361.301 173.342 364.553 210.023 354.829 210.019C347.263 210.015 348.672 174.959 334.761 187.365C320.849 199.77 351.258 211.992 347.278 219.69C344.253 225.542 320.31 211.097 321.388 224.581C322.467 238.064 348.041 230.265 354.829 235.908Z" fill="#38BFF2"/>
<g opacity="0.300003">
<g opacity="0.300003">
<path opacity="0.300003" d="M354.829 235.908C361.283 241.273 359.144 272.583 379.1 259.1C399.057 245.615 365.019 237.619 366.965 229.975C369.69 219.273 414.698 232.132 407.147 211.636C399.596 191.14 372.689 221.964 365.616 214.334C359.119 207.323 391.506 181.972 376.404 177.657C361.301 173.342 364.553 210.023 354.829 210.019C347.263 210.015 348.672 174.959 334.761 187.365C320.849 199.77 351.258 211.992 347.278 219.69C344.253 225.542 320.31 211.097 321.388 224.581C322.467 238.064 348.041 230.265 354.829 235.908Z" fill="white"/>
</g>
</g>
<path d="M359.422 219.873C359.422 219.873 340.544 245.077 336.229 287.148" stroke="#1A2E35" stroke-width="1.33333" stroke-miterlimit="10" stroke-linecap="round" stroke-linejoin="round"/>
<path d="M345.907 352.958H316.479C310.845 352.958 306.149 348.646 305.672 343.032L301.045 288.664C300.507 282.335 305.5 276.899 311.853 276.899H350.533C356.885 276.899 361.879 282.335 361.34 288.664L356.713 343.032C356.236 348.646 351.54 352.958 345.907 352.958Z" fill="#38BFF2"/>
<path d="M345.907 352.958H316.479C310.845 352.958 306.149 348.646 305.672 343.032L301.045 288.664C300.507 282.335 305.5 276.899 311.853 276.899H350.533C356.885 276.899 361.879 282.335 361.34 288.664L356.713 343.032C356.236 348.646 351.54 352.958 345.907 352.958Z" stroke="#1A2E35" stroke-width="1.33333" stroke-miterlimit="10" stroke-linecap="round" stroke-linejoin="round"/>
<path d="M125.557 274.874C135.391 274.874 163.803 268.455 163.803 268.455H87.3122C87.3122 268.455 115.724 274.874 125.557 274.874Z" fill="#1A2E35"/>
<path d="M125.557 274.874C135.391 274.874 163.803 268.455 163.803 268.455H87.3122C87.3122 268.455 115.724 274.874 125.557 274.874Z" stroke="#1A2E35" stroke-width="1.33333" stroke-miterlimit="10" stroke-linecap="round" stroke-linejoin="round"/>
<path d="M116.793 283.678H134.32V271.664H116.793V283.678Z" fill="#868686" stroke="#1A2E35" stroke-width="1.33333" stroke-miterlimit="10" stroke-linecap="round" stroke-linejoin="round"/>
<path d="M114.201 335.34H136.915V283.678H114.201V335.34Z" fill="#9A9A9A" stroke="#1A2E35" stroke-width="1.33333" stroke-miterlimit="10" stroke-linecap="round" stroke-linejoin="round"/>
<path d="M82.896 253.132H97.6567C96.0169 242.962 94.8067 232.598 94.0604 222.324H79.2986C80.0449 232.598 81.2562 242.962 82.896 253.132Z" fill="#868686"/>
<path d="M82.896 253.132H97.6567C96.0169 242.962 94.8067 232.598 94.0604 222.324H79.2986C80.0449 232.598 81.2562 242.962 82.896 253.132Z" stroke="#1A2E35" stroke-width="1.33333" stroke-miterlimit="10" stroke-linecap="round" stroke-linejoin="round"/>
<path d="M60.4741 131.339H124.104C131.583 131.339 136.477 137.653 135.032 145.097C130.957 168.004 128.55 190.651 127.757 213.913C127.636 220.654 122.507 225.86 115.762 225.86H62.1971C55.4522 225.86 49.3801 220.654 48.5143 213.913C45.9341 190.898 45.0022 168.255 45.7229 145.097C46.0769 137.653 52.9935 131.339 60.4741 131.339Z" fill="#868686"/>
<path d="M60.4741 131.339H124.104C131.583 131.339 136.477 137.653 135.032 145.097C130.957 168.004 128.55 190.651 127.757 213.913C127.636 220.654 122.507 225.86 115.762 225.86H62.1971C55.4522 225.86 49.3801 220.654 48.5143 213.913C45.9341 190.898 45.0022 168.255 45.7229 145.097C46.0769 137.653 52.9935 131.339 60.4741 131.339Z" stroke="#1A2E35" stroke-width="1.33333" stroke-miterlimit="10" stroke-linecap="round" stroke-linejoin="round"/>
<path d="M57.0083 145.096C56.2865 168.255 57.2194 190.899 59.7997 213.913C60.6654 220.654 66.7375 225.861 73.4824 225.861H115.761C122.507 225.861 127.637 220.654 127.756 213.913C128.55 190.651 130.958 168.004 135.032 145.096C136.478 137.654 131.584 131.339 124.104 131.339H71.7594C64.2778 131.339 57.3623 137.654 57.0083 145.096Z" fill="#9A9A9A"/>
<path d="M57.0083 145.096C56.2865 168.255 57.2194 190.899 59.7997 213.913C60.6654 220.654 66.7375 225.861 73.4824 225.861H115.761C122.507 225.861 127.637 220.654 127.756 213.913C128.55 190.651 130.958 168.004 135.032 145.096C136.478 137.654 131.584 131.339 124.104 131.339H71.7594C64.2778 131.339 57.3623 137.654 57.0083 145.096Z" stroke="#1A2E35" stroke-width="1.33333" stroke-miterlimit="10" stroke-linecap="round" stroke-linejoin="round"/>
<path d="M87.3118 344.614C87.3118 345.826 88.4281 346.728 89.6126 346.47C96.5729 344.952 117.422 340.56 125.557 340.56C133.691 340.56 154.541 344.952 161.501 346.47C162.686 346.728 163.802 345.826 163.802 344.614C163.802 342.264 162.167 340.236 159.869 339.742C151.721 337.992 133.13 334.186 125.557 334.186C117.985 334.186 99.3931 337.992 91.245 339.742C88.9473 340.236 87.3118 342.264 87.3118 344.614Z" fill="#1A2E35"/>
<path d="M87.3118 344.614C87.3118 345.826 88.4281 346.728 89.6126 346.47C96.5729 344.952 117.422 340.56 125.557 340.56C133.691 340.56 154.541 344.952 161.501 346.47C162.686 346.728 163.802 345.826 163.802 344.614C163.802 342.264 162.167 340.236 159.869 339.742C151.721 337.992 133.13 334.186 125.557 334.186C117.985 334.186 99.3931 337.992 91.245 339.742C88.9473 340.236 87.3118 342.264 87.3118 344.614Z" stroke="#1A2E35" stroke-width="1.33333" stroke-miterlimit="10" stroke-linecap="round" stroke-linejoin="round"/>
<path d="M163.803 350.855C165.761 350.855 167.346 349.27 167.346 347.312C167.346 345.356 165.761 343.769 163.803 343.769C161.846 343.769 160.261 345.356 160.261 347.312C160.261 349.27 161.846 350.855 163.803 350.855ZM163.803 340.771C167.416 340.771 170.344 343.7 170.344 347.312C170.344 350.924 167.416 353.854 163.803 353.854C160.191 353.854 157.262 350.924 157.262 347.312C157.262 343.7 160.191 340.771 163.803 340.771Z" fill="#868686"/>
<path d="M163.803 350.855C165.761 350.855 167.346 349.27 167.346 347.312C167.346 345.356 165.761 343.769 163.803 343.769C161.846 343.769 160.261 345.356 160.261 347.312C160.261 349.27 161.846 350.855 163.803 350.855ZM163.803 340.771C167.416 340.771 170.344 343.7 170.344 347.312C170.344 350.924 167.416 353.854 163.803 353.854C160.191 353.854 157.262 350.924 157.262 347.312C157.262 343.7 160.191 340.771 163.803 340.771Z" stroke="#1A2E35" stroke-width="1.33333" stroke-miterlimit="10" stroke-linecap="round" stroke-linejoin="round"/>
<path d="M125.557 350.855C127.514 350.855 129.099 349.27 129.099 347.312C129.099 345.356 127.514 343.769 125.557 343.769C123.601 343.769 122.014 345.356 122.014 347.312C122.014 349.27 123.601 350.855 125.557 350.855ZM125.557 340.771C129.17 340.771 132.099 343.7 132.099 347.312C132.099 350.924 129.17 353.854 125.557 353.854C121.944 353.854 119.016 350.924 119.016 347.312C119.016 343.7 121.944 340.771 125.557 340.771Z" fill="#868686"/>
<path d="M125.557 350.855C127.514 350.855 129.099 349.27 129.099 347.312C129.099 345.356 127.514 343.769 125.557 343.769C123.601 343.769 122.014 345.356 122.014 347.312C122.014 349.27 123.601 350.855 125.557 350.855ZM125.557 340.771C129.17 340.771 132.099 343.7 132.099 347.312C132.099 350.924 129.17 353.854 125.557 353.854C121.944 353.854 119.016 350.924 119.016 347.312C119.016 343.7 121.944 340.771 125.557 340.771Z" stroke="#1A2E35" stroke-width="1.33333" stroke-miterlimit="10" stroke-linecap="round" stroke-linejoin="round"/>
<path d="M88.1051 350.855C90.0627 350.855 91.6482 349.27 91.6482 347.312C91.6482 345.356 90.0627 343.769 88.1051 343.769C86.1486 343.769 84.5632 345.356 84.5632 347.312C84.5632 349.27 86.1486 350.855 88.1051 350.855ZM88.1051 340.771C91.7186 340.771 94.6475 343.7 94.6475 347.312C94.6475 350.924 91.7186 353.854 88.1051 353.854C84.4928 353.854 81.5639 350.924 81.5639 347.312C81.5639 343.7 84.4928 340.771 88.1051 340.771Z" fill="#868686"/>
<path d="M88.1051 350.855C90.0627 350.855 91.6482 349.27 91.6482 347.312C91.6482 345.356 90.0627 343.769 88.1051 343.769C86.1486 343.769 84.5632 345.356 84.5632 347.312C84.5632 349.27 86.1486 350.855 88.1051 350.855ZM88.1051 340.771C91.7186 340.771 94.6475 343.7 94.6475 347.312C94.6475 350.924 91.7186 353.854 88.1051 353.854C84.4928 353.854 81.5639 350.924 81.5639 347.312C81.5639 343.7 84.4928 340.771 88.1051 340.771Z" stroke="#1A2E35" stroke-width="1.33333" stroke-miterlimit="10" stroke-linecap="round" stroke-linejoin="round"/>
<path d="M106.168 251.064C131.911 251.86 157.037 250.749 182.608 247.684C187.814 246.984 192.023 250.548 192.023 255.772V257.021C192.023 262.246 187.814 267.154 182.608 267.855C157.037 270.919 131.911 272.03 106.168 271.233V251.064Z" fill="#9A9A9A"/>
<path d="M106.168 251.064C131.911 251.86 157.037 250.749 182.608 247.684C187.814 246.984 192.023 250.548 192.023 255.772V257.021C192.023 262.246 187.814 267.154 182.608 267.855C157.037 270.919 131.911 272.03 106.168 271.233V251.064Z" stroke="#1A2E35" stroke-width="1.33333" stroke-miterlimit="10" stroke-linecap="round" stroke-linejoin="round"/>
<path d="M66.0783 267.52C81.9223 269.501 97.6287 270.82 113.583 271.505C117.471 271.614 120.626 268.5 120.626 264.62V258.497C120.626 254.618 117.471 251.444 113.583 251.335C97.6287 250.65 81.9223 249.332 66.0783 247.351C62.2153 246.809 59.0903 249.456 59.0903 253.334V259.458C59.0903 263.338 62.2153 266.979 66.0783 267.52Z" fill="#868686"/>
<path d="M66.0783 267.52C81.9223 269.501 97.6287 270.82 113.583 271.505C117.471 271.614 120.626 268.5 120.626 264.62V258.497C120.626 254.618 117.471 251.444 113.583 251.335C97.6287 250.65 81.9223 249.332 66.0783 247.351C62.2153 246.809 59.0903 249.456 59.0903 253.334V259.458C59.0903 263.338 62.2153 266.979 66.0783 267.52Z" stroke="#1A2E35" stroke-width="1.33333" stroke-miterlimit="10" stroke-linecap="round" stroke-linejoin="round"/>
<path d="M172.164 350.455C172.211 346.893 172.941 339.763 177.132 330.568L182.605 310.843L199.665 318.13L194.867 333.234C194.867 333.234 209.532 340.231 214.947 342.12C218.554 343.376 229.341 345.851 228.808 350.471C228.808 351.846 227.694 352.959 226.32 352.959H174.652C173.27 352.959 172.146 351.837 172.164 350.455Z" fill="white"/>
<path d="M172.164 350.455C172.211 346.893 172.941 339.763 177.132 330.568L182.605 310.843L199.665 318.13L194.867 333.234C194.867 333.234 209.532 340.231 214.947 342.12C218.554 343.376 229.341 345.851 228.808 350.471C228.808 351.846 227.694 352.959 226.32 352.959H174.652C173.27 352.959 172.146 351.837 172.164 350.455Z" stroke="#1A2E35" stroke-width="1.33333" stroke-miterlimit="10" stroke-linecap="round" stroke-linejoin="round"/>
<path d="M181.55 338.921C184.216 340.875 198.432 343.363 194.866 340.52C191.302 337.676 194.866 333.233 194.866 333.233C194.866 333.233 209.532 340.231 214.947 342.119C218.554 343.376 229.341 345.851 228.808 350.471C228.808 351.845 227.694 352.958 226.32 352.958H174.652C173.27 352.958 172.146 351.837 172.163 350.455C172.203 347.447 172.738 341.885 175.428 334.691C178.365 334.727 178.885 336.966 181.55 338.921Z" fill="#38BFF2"/>
<path d="M181.55 338.921C184.216 340.875 198.432 343.363 194.866 340.52C191.302 337.676 194.866 333.233 194.866 333.233C194.866 333.233 209.532 340.231 214.947 342.119C218.554 343.376 229.341 345.851 228.808 350.471C228.808 351.845 227.694 352.958 226.32 352.958H174.652C173.27 352.958 172.146 351.837 172.163 350.455C172.203 347.447 172.738 341.885 175.428 334.691C178.365 334.727 178.885 336.966 181.55 338.921Z" stroke="#1A2E35" stroke-width="1.33333" stroke-miterlimit="10" stroke-linecap="round" stroke-linejoin="round"/>
<path d="M159.822 352.958H121.974C121.191 352.958 120.524 352.404 120.375 351.636C119.795 348.628 119.928 341.901 123.342 332.967L123.677 314.831L143.067 318.129L140.607 333.59C140.607 333.59 148.414 342.18 152.121 343.719C154.728 344.8 160.649 344.914 161.444 351.145C161.568 352.108 160.794 352.958 159.822 352.958Z" fill="white"/>
<path d="M159.822 352.958H121.974C121.191 352.958 120.524 352.404 120.375 351.636C119.795 348.628 119.928 341.901 123.342 332.967L123.677 314.831L143.067 318.129L140.607 333.59C140.607 333.59 148.414 342.18 152.121 343.719C154.728 344.8 160.649 344.914 161.444 351.145C161.568 352.108 160.794 352.958 159.822 352.958Z" stroke="#1A2E35" stroke-width="1.33333" stroke-miterlimit="10" stroke-linecap="round" stroke-linejoin="round"/>
<path d="M129.731 338.989C133.732 341.787 136.681 342.12 134.815 337.923C132.95 333.727 140.606 333.59 140.606 333.59C140.606 333.59 148.413 342.179 152.121 343.719C154.727 344.799 160.649 344.914 161.444 351.144C161.567 352.108 160.794 352.959 159.822 352.959H121.974C121.19 352.959 120.523 352.404 120.376 351.636C119.796 348.627 119.928 341.9 123.342 332.967C126.262 333.678 125.728 336.192 129.731 338.989Z" fill="#38BFF2"/>
<path d="M129.731 338.989C133.732 341.787 136.681 342.12 134.815 337.923C132.95 333.727 140.606 333.59 140.606 333.59C140.606 333.59 148.413 342.179 152.121 343.719C154.727 344.799 160.649 344.914 161.444 351.144C161.567 352.108 160.794 352.959 159.822 352.959H121.974C121.19 352.959 120.523 352.404 120.376 351.636C119.796 348.627 119.928 341.9 123.342 332.967C126.262 333.678 125.728 336.192 129.731 338.989Z" stroke="#1A2E35" stroke-width="1.33333" stroke-miterlimit="10" stroke-linecap="round" stroke-linejoin="round"/>
<path d="M163.591 214.528C163.591 214.528 167.402 218.438 183.001 220.925C198.598 223.413 230.941 231.233 230.585 244.027C230.23 256.822 200.376 325.06 200.376 325.06C200.376 325.06 185.449 322.216 178.518 317.951C178.518 317.951 190.534 269.26 199.542 256.466C199.542 256.466 159.099 251.491 136.733 242.25C114.367 233.009 127.517 211.979 127.517 211.979L163.591 214.528Z" fill="#1A2E35"/>
<path d="M163.591 214.528C163.591 214.528 167.402 218.438 183.001 220.925C198.598 223.413 230.941 231.233 230.585 244.027C230.23 256.822 200.376 325.06 200.376 325.06C200.376 325.06 185.449 322.216 178.518 317.951C178.518 317.951 190.534 269.26 199.542 256.466C199.542 256.466 159.099 251.491 136.733 242.25C114.367 233.009 127.517 211.979 127.517 211.979L163.591 214.528Z" stroke="#1A2E35" stroke-width="1.33333" stroke-miterlimit="10" stroke-linecap="round" stroke-linejoin="round"/>
<path d="M138.181 212.732C138.181 212.732 132.443 222.347 136.733 227.678C141.022 233.009 165.352 242.961 162.606 255.045C159.859 267.128 150.775 284.188 144.85 324.704C144.85 324.704 131.071 322.572 121.83 318.663C121.83 318.663 120.299 277.435 131.016 259.665C131.016 259.665 100.328 253.979 97.2188 243.672C94.1087 233.365 99.927 217.604 100.039 211.979L138.181 212.732Z" fill="#1A2E35"/>
<path d="M138.181 212.732C138.181 212.732 132.443 222.347 136.733 227.678C141.022 233.009 165.352 242.961 162.606 255.045C159.859 267.128 150.775 284.188 144.85 324.704C144.85 324.704 131.071 322.572 121.83 318.663C121.83 318.663 120.299 277.435 131.016 259.665C131.016 259.665 100.328 253.979 97.2188 243.672C94.1087 233.365 99.927 217.604 100.039 211.979L138.181 212.732Z" stroke="#1A2E35" stroke-width="1.33333" stroke-miterlimit="10" stroke-linecap="round" stroke-linejoin="round"/>
<path d="M156.67 227.999C157.349 227.955 158.057 227.962 158.793 228.034" stroke="#808080" stroke-linecap="round" stroke-linejoin="round"/>
<path d="M155.32 221.637C155.32 221.637 149.017 223.491 146.545 231.704C146.349 232.355 147.16 232.853 147.638 232.369C148.95 231.043 150.997 229.413 153.708 228.558" stroke="#808080" stroke-linecap="round" stroke-linejoin="round"/>
<path d="M202.507 256.022C202.507 252.556 217.435 250.691 213.436 247.492C209.438 244.294 200.375 254.689 200.375 254.689" stroke="#808080" stroke-linecap="round" stroke-linejoin="round"/>
<path d="M129.161 269.883C129.161 265.914 143.426 263.752 142.713 259.487C142.001 255.222 132.938 263.619 132.938 263.619" stroke="#808080" stroke-linecap="round" stroke-linejoin="round"/>
<path d="M201.947 325.303L200.377 328.927C200.198 329.339 199.757 329.568 199.32 329.469C195.872 328.692 181.498 325.296 176.451 321.676C176.15 321.461 176.025 321.073 176.113 320.713L177.092 316.673C177.237 316.075 177.908 315.78 178.449 316.076C180.716 317.315 187.04 320.268 201.319 324.028C201.873 324.173 202.174 324.778 201.947 325.303Z" fill="#9A9A9A"/>
<path d="M201.947 325.303L200.377 328.927C200.198 329.339 199.757 329.568 199.32 329.469C195.872 328.692 181.498 325.296 176.451 321.676C176.15 321.461 176.025 321.073 176.113 320.713L177.092 316.673C177.237 316.075 177.908 315.78 178.449 316.076C180.716 317.315 187.04 320.268 201.319 324.028C201.873 324.173 202.174 324.778 201.947 325.303Z" stroke="#1A2E35" stroke-width="1.33333" stroke-miterlimit="10" stroke-linecap="round" stroke-linejoin="round"/>
<path d="M146.586 322.318C146.665 321.773 146.138 321.322 145.623 321.513C144.601 321.893 142.869 322.189 140.267 321.594C136.315 320.691 124.997 317.109 121.631 316.035C121.154 315.883 120.676 316.241 120.676 316.741V321.454C120.676 321.747 120.841 322.008 121.108 322.126C123.755 323.305 137.921 329.373 145.335 327.72C145.631 327.653 145.848 327.401 145.892 327.1L146.586 322.318Z" fill="#9A9A9A"/>
<path d="M146.586 322.318C146.665 321.773 146.138 321.322 145.623 321.513C144.601 321.893 142.869 322.189 140.267 321.594C136.315 320.691 124.997 317.109 121.631 316.035C121.154 315.883 120.676 316.241 120.676 316.741V321.454C120.676 321.747 120.841 322.008 121.108 322.126C123.755 323.305 137.921 329.373 145.335 327.72C145.631 327.653 145.848 327.401 145.892 327.1L146.586 322.318Z" stroke="#1A2E35" stroke-width="1.33333" stroke-miterlimit="10" stroke-linecap="round" stroke-linejoin="round"/>
<path d="M135.184 223.628C135.319 225.088 135.777 226.49 136.732 227.678C139.862 231.566 153.652 237.913 159.821 245.752" stroke="#808080" stroke-width="1.33333" stroke-linecap="round" stroke-linejoin="round"/>
<path d="M135.849 218.206C135.624 218.973 135.433 219.783 135.306 220.607" stroke="#808080" stroke-width="1.33333" stroke-linecap="round" stroke-linejoin="round"/>
<path d="M217.505 344.518C217.505 344.518 216.439 346.206 215.639 349.583H177.133C177.133 349.583 177.031 347.001 174.99 345.185" stroke="#1A2E35" stroke-width="1.33333" stroke-miterlimit="10" stroke-linecap="round" stroke-linejoin="round"/>
<path d="M150.6 344.518C150.6 344.518 145.269 344.918 143.27 349.583H123.145C123.145 349.583 122.079 347.184 122.079 345.185" stroke="#1A2E35" stroke-width="1.33333" stroke-miterlimit="10" stroke-linecap="round" stroke-linejoin="round"/>
<path d="M182.159 154.226C181.665 156.109 181.157 157.973 180.65 159.796C175.319 178.988 168.389 215.506 168.389 215.506C134.27 222.703 98.2854 215.506 98.2854 215.506C98.0892 207.544 99.0584 197.044 100.138 186.014C94.5429 184.466 90.5084 179.301 90.2887 170.725C90.0222 160.329 91.9062 141.612 92.9543 132.874C93.8766 125.184 93.2208 120.612 105.13 114.786C111.099 111.34 121.01 109.71 133.204 108.084C157.194 104.886 174.505 109.733 180.65 112.349C185.52 111.067 186.875 116.786 186.875 116.786C189.574 114.742 192.706 123.38 192.706 123.38C200.598 133.45 206.805 150.405 208.868 156.452C209.32 157.777 210.166 158.921 211.278 159.769C216.875 164.037 213.764 169.314 213.764 169.314L202.302 172.827C202.302 172.827 196.75 174.272 192.507 166.969C188.958 160.86 183.158 150.504 182.159 154.226Z" fill="#38BFF2"/>
<g opacity="0.300003">
<g opacity="0.300003">
<path opacity="0.300003" d="M200.191 168.007C200.191 168.007 200.457 162.677 204.722 161.744C208.987 160.811 203.523 159.219 200.191 160.016C196.859 160.811 197.626 157.879 194.778 153.081C191.928 148.283 190.529 144.49 188.096 147.257C185.662 150.023 183.186 150.404 182.159 154.226C181.132 158.047 186.197 166.968 186.197 166.968L194.153 173.139L198.192 175.404H204.224L206.284 170.19L200.191 168.007Z" fill="black"/>
</g>
</g>
<path d="M182.16 154.226C181.665 156.109 181.158 157.973 180.65 159.796C175.319 178.988 168.39 215.506 168.39 215.506C134.271 222.703 98.2859 215.506 98.2859 215.506C98.0897 207.544 99.0589 197.044 100.139 186.014C94.5434 184.466 90.5089 179.301 90.2892 170.725C90.0227 160.329 91.9067 141.611 92.9548 132.874C93.877 125.184 93.2213 120.612 105.131 114.785C111.1 111.339 121.01 109.71 133.204 108.084C157.194 104.886 174.506 109.733 180.65 112.349C185.521 111.066 186.876 116.786 186.876 116.786C189.574 114.742 192.707 123.38 192.707 123.38C200.598 133.45 206.806 150.405 208.869 156.452C209.321 157.776 210.166 158.92 211.278 159.769C216.876 164.037 213.765 169.314 213.765 169.314L202.303 172.827C202.303 172.827 196.75 174.272 192.508 166.969C188.958 160.86 183.159 150.504 182.16 154.226Z" stroke="#1A2E35" stroke-width="1.33333" stroke-miterlimit="10" stroke-linecap="round" stroke-linejoin="round"/>
<g opacity="0.300003">
<g opacity="0.300003">
<path opacity="0.300003" d="M98.2868 215.506C98.145 209.746 98.6162 202.647 99.2944 194.991C98.1322 211.222 131.942 216.301 133.008 207.504C134.074 198.702 100.14 186.014 118.605 190.45C134.719 194.32 165.939 190.622 173.623 189.619C170.672 203.487 168.391 215.506 168.391 215.506C134.272 222.703 98.2868 215.506 98.2868 215.506Z" fill="black"/>
</g>
</g>
<g opacity="0.300003">
<g opacity="0.300003">
<path opacity="0.300003" d="M113.789 133.94C113.789 133.94 118.613 148.067 118.604 155.531C118.593 162.987 132.138 167.997 132.162 168.007C124.909 166.528 117.848 164.578 114.473 163.603C113.276 163.258 112.493 162.121 112.602 160.88C113.267 153.228 113.988 142.924 113.787 133.94H113.789Z" fill="black"/>
</g>
</g>
<path d="M186.628 130.383C186.628 130.383 186.79 140.545 183.072 149.885C182.726 150.751 183.711 151.541 184.469 150.998C186.297 149.689 188.884 147.02 191.223 141.645" stroke="#1A2E35" stroke-miterlimit="10" stroke-linecap="round" stroke-linejoin="round"/>
<path d="M96.1528 173.923C98.9654 164.595 103.834 162.258 107.607 162.024C108.214 161.986 108.415 161.193 107.882 160.904C105.692 159.718 101.419 158.781 96.1528 164.593" stroke="#1A2E35" stroke-miterlimit="10" stroke-linecap="round" stroke-linejoin="round"/>
<path d="M150.24 147.219C150.24 148.104 150.957 148.82 151.841 148.82C152.726 148.82 153.444 148.104 153.444 147.219C153.444 146.334 152.726 145.617 151.841 145.617C150.957 145.617 150.24 146.334 150.24 147.219Z" fill="#9A9A9A"/>
<path d="M150.24 147.219C150.24 148.104 150.957 148.82 151.841 148.82C152.726 148.82 153.444 148.104 153.444 147.219C153.444 146.334 152.726 145.617 151.841 145.617C150.957 145.617 150.24 146.334 150.24 147.219Z" stroke="#1A2E35" stroke-miterlimit="10" stroke-linecap="round" stroke-linejoin="round"/>
<path d="M148.068 165.367C148.068 166.252 148.786 166.969 149.671 166.969C150.556 166.969 151.272 166.252 151.272 165.367C151.272 164.482 150.556 163.765 149.671 163.765C148.786 163.765 148.068 164.482 148.068 165.367Z" fill="#9A9A9A"/>
<path d="M148.068 165.367C148.068 166.252 148.786 166.969 149.671 166.969C150.556 166.969 151.272 166.252 151.272 165.367C151.272 164.482 150.556 163.765 149.671 163.765C148.786 163.765 148.068 164.482 148.068 165.367Z" stroke="#1A2E35" stroke-miterlimit="10" stroke-linecap="round" stroke-linejoin="round"/>
<path d="M142.713 209.105C142.713 209.99 143.431 210.708 144.316 210.708C145.199 210.708 145.917 209.99 145.917 209.105C145.917 208.22 145.199 207.504 144.316 207.504C143.431 207.504 142.713 208.22 142.713 209.105Z" fill="#9A9A9A"/>
<path d="M142.713 209.105C142.713 209.99 143.431 210.708 144.316 210.708C145.199 210.708 145.917 209.99 145.917 209.105C145.917 208.22 145.199 207.504 144.316 207.504C143.431 207.504 142.713 208.22 142.713 209.105Z" stroke="#1A2E35" stroke-width="1.33333" stroke-miterlimit="10" stroke-linecap="round" stroke-linejoin="round"/>
<path d="M173.33 177.255C173.33 177.255 178.567 182.251 176.076 182.329C173.587 182.407 170.436 178.987 167.548 178.587C164.658 178.188 169.323 176.422 169.323 176.422L173.33 177.255Z" fill="white"/>
<path d="M173.33 177.255C173.33 177.255 178.567 182.251 176.076 182.329C173.587 182.407 170.436 178.987 167.548 178.587C164.658 178.188 169.323 176.422 169.323 176.422L173.33 177.255Z" stroke="#1A2E35" stroke-width="1.33333" stroke-miterlimit="10" stroke-linecap="round" stroke-linejoin="round"/>
<path d="M142.761 171.643C143.23 171.216 143.865 171.014 144.499 171.065C147.064 171.271 154.412 171.829 157.194 171.657C162.114 171.354 176.622 168.28 176.622 168.28C176.958 168.223 177.303 168.242 177.63 168.338L186.614 170.977C186.942 171.074 187.242 171.243 187.494 171.475L192.932 176.472C193.111 176.637 193.262 176.83 193.379 177.045L194.505 179.11C194.983 179.983 194.821 181.068 194.111 181.765L185.113 182.046C184.558 182.063 184.016 181.873 183.594 181.511L180.929 179.226C180.752 179.074 180.602 178.894 180.478 178.695C179.821 177.642 177.31 174.115 173.329 174.456C173.329 174.456 181.85 178.987 180.251 180.853C178.652 182.719 172.121 177.388 169.989 177.921C167.902 178.443 167.715 183.684 156.109 181.789C155.594 181.705 155.06 181.725 154.557 181.865L144.003 184.816C142.681 185.186 141.323 184.393 140.983 183.064C140.193 179.976 139.473 174.64 142.761 171.643Z" fill="white"/>
<path d="M142.761 171.643C143.23 171.216 143.865 171.014 144.499 171.065C147.064 171.271 154.412 171.829 157.194 171.657C162.114 171.354 176.622 168.28 176.622 168.28C176.958 168.223 177.303 168.242 177.63 168.338L186.614 170.977C186.942 171.074 187.242 171.243 187.494 171.475L192.932 176.472C193.111 176.637 193.262 176.83 193.379 177.045L194.505 179.11C194.983 179.983 194.821 181.068 194.111 181.765L185.113 182.046C184.558 182.063 184.016 181.873 183.594 181.511L180.929 179.226C180.752 179.074 180.602 178.894 180.478 178.695C179.821 177.642 177.31 174.115 173.329 174.456C173.329 174.456 181.85 178.987 180.251 180.853C178.652 182.719 172.121 177.388 169.989 177.921C167.902 178.443 167.715 183.684 156.109 181.789C155.594 181.705 155.06 181.725 154.557 181.865L144.003 184.816C142.681 185.186 141.323 184.393 140.983 183.064C140.193 179.976 139.473 174.64 142.761 171.643Z" stroke="#1A2E35" stroke-width="1.33333" stroke-miterlimit="10" stroke-linecap="round" stroke-linejoin="round"/>
<path d="M175.367 170.191L177.631 170.573C178.734 170.759 179.764 171.248 180.606 171.984L182.958 174.043C183.373 174.406 183.735 174.823 184.037 175.283L185.581 177.645C185.751 177.905 185.943 178.149 186.152 178.379C187.068 179.39 189.592 182.392 186.866 181.992" fill="white"/>
<path d="M175.367 170.191L177.631 170.573C178.734 170.759 179.764 171.248 180.606 171.984L182.958 174.043C183.373 174.406 183.735 174.823 184.037 175.283L185.581 177.645C185.751 177.905 185.943 178.149 186.152 178.379C187.068 179.39 189.592 182.392 186.866 181.992" stroke="#1A2E35" stroke-width="1.33333" stroke-miterlimit="10" stroke-linecap="round" stroke-linejoin="round"/>
<path d="M181.731 170.991L184.071 171.623C184.8 171.82 185.467 172.198 186.012 172.721L187.836 174.473C188.009 174.639 188.169 174.818 188.313 175.011L191.307 178.987C191.307 178.987 192.91 181.803 191.307 181.853" fill="white"/>
<path d="M181.731 170.991L184.071 171.623C184.8 171.82 185.467 172.198 186.012 172.721L187.836 174.473C188.009 174.639 188.169 174.818 188.313 175.011L191.307 178.987C191.307 178.987 192.91 181.803 191.307 181.853" stroke="#1A2E35" stroke-width="1.33333" stroke-miterlimit="10" stroke-linecap="round" stroke-linejoin="round"/>
<path d="M113.719 131.678C114.113 141.148 113.324 152.578 112.601 160.88C112.494 162.121 113.275 163.257 114.472 163.603C119.128 164.947 130.8 168.154 140.315 169.409" stroke="#1A2E35" stroke-width="1.33333" stroke-miterlimit="10" stroke-linecap="round" stroke-linejoin="round"/>
<path d="M113.188 125.067C113.328 126.151 113.442 127.291 113.532 128.476" stroke="#1A2E35" stroke-miterlimit="10" stroke-linecap="round" stroke-linejoin="round"/>
<path d="M109.609 115.081C110.832 116.133 111.732 118.082 112.379 120.646" stroke="#1A2E35" stroke-miterlimit="10" stroke-linecap="round" stroke-linejoin="round"/>
<path d="M162.995 108.75C162.995 108.75 162.329 106.618 158.73 105.418C155.132 104.219 142.68 102.297 136.274 105.418C129.865 108.539 142.138 125.477 142.138 125.477L147.868 133.339L152.932 137.138L155.199 130.384L158.131 127.342C158.131 127.342 164.461 122.145 163.928 117.013C163.395 111.883 162.995 108.75 162.995 108.75Z" fill="white"/>
<path d="M136.824 108.046C145.288 134.617 152.751 135.805 152.751 135.805C155.239 126.032 157.371 128.165 160.748 122.057C163.457 117.158 162.54 110.946 162.073 108.683C161.959 108.133 161.61 107.655 161.109 107.4C152.711 103.125 142.434 104.697 138.196 105.633C137.118 105.871 136.489 106.995 136.824 108.046ZM131.539 108.308C132.539 104.802 137.113 103.819 137.113 103.819C158.97 100.087 163.591 108.032 163.591 108.032C168.033 120.419 163.591 130.383 163.591 130.383C163.591 130.383 157.371 127.809 156.305 130.383C155.239 132.957 153.284 138.471 153.284 138.471C153.284 138.471 149.019 136.338 145.643 131.896C142.267 127.453 134.326 131.896 134.326 131.896C129.229 123.011 131.539 108.308 131.539 108.308Z" fill="#38BFF2"/>
<g opacity="0.399994">
<g opacity="0.399994">
<path opacity="0.399994" d="M136.824 108.046C145.288 134.618 152.751 135.805 152.751 135.805C155.239 126.032 157.371 128.165 160.748 122.058C163.457 117.158 162.54 110.946 162.073 108.683C161.959 108.133 161.61 107.655 161.109 107.4C152.711 103.125 142.434 104.697 138.196 105.633C137.118 105.871 136.489 106.995 136.824 108.046ZM131.539 108.309C132.539 104.802 137.113 103.819 137.113 103.819C158.97 100.087 163.591 108.032 163.591 108.032C168.033 120.419 163.591 130.384 163.591 130.384C163.591 130.384 157.371 127.809 156.305 130.384C155.239 132.957 153.284 138.471 153.284 138.471C153.284 138.471 149.019 136.338 145.643 131.897C142.267 127.454 134.326 131.897 134.326 131.897C129.229 123.011 131.539 108.309 131.539 108.309Z" fill="white"/>
</g>
</g>
<path d="M136.823 108.046C145.287 134.617 152.751 135.805 152.751 135.805C155.238 126.032 157.37 128.165 160.747 122.057C163.456 117.158 162.539 110.946 162.072 108.683C161.958 108.133 161.61 107.655 161.109 107.4C152.71 103.125 142.434 104.697 138.196 105.633C137.118 105.871 136.489 106.995 136.823 108.046ZM131.538 108.308C132.538 104.802 137.112 103.819 137.112 103.819C158.97 100.087 163.591 108.032 163.591 108.032C168.033 120.419 163.591 130.383 163.591 130.383C163.591 130.383 157.37 127.809 156.304 130.383C155.238 132.957 153.284 138.471 153.284 138.471C153.284 138.471 149.019 136.338 145.642 131.896C142.266 127.453 134.325 131.896 134.325 131.896C129.229 123.011 131.538 108.308 131.538 108.308V108.308Z" stroke="#1A2E35" stroke-width="1.33333" stroke-miterlimit="10" stroke-linecap="round" stroke-linejoin="round"/>
<path d="M167.222 67.705C167.222 67.705 186.058 71.4773 175.685 83.7292C164.179 97.3171 167.222 67.705 167.222 67.705Z" fill="#1A2E35"/>
<path d="M167.222 67.705C167.222 67.705 186.058 71.4773 175.685 83.7292C164.179 97.3171 167.222 67.705 167.222 67.705Z" stroke="#1A2E35" stroke-width="1.33333" stroke-miterlimit="10" stroke-linecap="round" stroke-linejoin="round"/>
<path d="M174.651 97.599C174.651 97.599 179.129 79.4733 170.599 70.7655C162.07 62.0587 152.829 60.2813 145.898 64.5462C138.968 68.8111 136.125 79.4733 137.191 84.9824C138.258 90.4905 137.737 110.216 147.238 118.39C156.738 126.565 162.586 124.55 168.868 113.414C172.996 106.098 174.971 103.996 174.651 97.599Z" fill="white"/>
<path d="M174.651 97.599C174.651 97.599 179.129 79.4733 170.599 70.7655C162.07 62.0587 152.829 60.2813 145.898 64.5462C138.968 68.8111 136.125 79.4733 137.191 84.9824C138.258 90.4905 137.737 110.216 147.238 118.39C156.738 126.565 162.586 124.55 168.868 113.414C172.996 106.098 174.971 103.996 174.651 97.599Z" stroke="#1A2E35" stroke-width="1.33333" stroke-miterlimit="10" stroke-linecap="round" stroke-linejoin="round"/>
<path d="M141.637 94.0454C141.637 94.0454 148.797 86.9369 150.991 78.5853C153.184 70.2336 154.427 68.8112 162.602 72.8991C170.776 76.9859 183.53 71.4842 180.194 61.1707C176.687 50.3305 165.978 64.3694 155.671 60.8146C145.364 57.2609 138.054 63.6582 138.038 73.0761C138.038 73.0761 131.809 79.1184 138.054 94.7566L141.637 94.0454Z" fill="#1A2E35"/>
<path d="M141.637 94.0454C141.637 94.0454 148.797 86.9369 150.991 78.5853C153.184 70.2336 154.427 68.8112 162.602 72.8991C170.776 76.9859 183.53 71.4842 180.194 61.1707C176.687 50.3305 165.978 64.3694 155.671 60.8146C145.364 57.2609 138.054 63.6582 138.038 73.0761C138.038 73.0761 131.809 79.1184 138.054 94.7566L141.637 94.0454Z" stroke="#1A2E35" stroke-width="1.33333" stroke-miterlimit="10" stroke-linecap="round" stroke-linejoin="round"/>
<path d="M143.884 92.8531C143.884 92.8531 142.072 82.9171 137.032 83.8383C131.993 84.7606 135.596 99.4211 141.524 97.8217" fill="white"/>
<path d="M143.884 92.8531C143.884 92.8531 142.072 82.9171 137.032 83.8383C131.993 84.7606 135.596 99.4211 141.524 97.8217" stroke="#1A2E35" stroke-width="1.33333" stroke-miterlimit="10" stroke-linecap="round" stroke-linejoin="round"/>
<path d="M167.845 96.222C167.845 96.222 169.819 105.443 169.177 107.028C168.534 108.614 162.429 107.4 162.429 107.4" fill="white"/>
<path d="M167.845 96.222C167.845 96.222 169.819 105.443 169.177 107.028C168.534 108.614 162.429 107.4 162.429 107.4" stroke="#1A2E35" stroke-width="1.33333" stroke-miterlimit="10" stroke-linecap="round" stroke-linejoin="round"/>
<path d="M161.581 111.416C161.581 111.416 156.8 113.304 152.592 107.028L161.581 111.416Z" fill="white"/>
<path d="M161.581 111.416C161.581 111.416 156.8 113.304 152.592 107.028" stroke="#1A2E35" stroke-width="1.33333" stroke-miterlimit="10" stroke-linecap="round" stroke-linejoin="round"/>
<path d="M171.116 96.991C170.938 97.8504 171.162 98.6234 171.617 98.7183C172.071 98.8121 172.586 98.1926 172.764 97.3332C172.942 96.4739 172.718 95.7009 172.263 95.607C171.808 95.5121 171.295 96.1316 171.116 96.991Z" fill="#1A2E35"/>
<path d="M159.423 96.0513C159.245 96.9106 159.469 97.6836 159.924 97.7775C160.378 97.8724 160.893 97.2518 161.071 96.3935C161.249 95.5341 161.025 94.7611 160.57 94.6662C160.115 94.5724 159.601 95.1919 159.423 96.0513Z" fill="#1A2E35"/>
<path d="M168.657 96.5916C168.416 99.0066 170.844 101.228 174.08 101.551C177.316 101.874 180.135 100.178 180.377 97.7634C180.618 95.3474 178.075 94.2811 174.839 93.9581C171.603 93.635 168.899 94.1756 168.657 96.5916Z" stroke="#1A2E35" stroke-width="1.33333" stroke-miterlimit="10" stroke-linecap="round" stroke-linejoin="round"/>
<path d="M153.569 95.083C153.327 97.499 155.756 99.7189 158.992 100.042C162.228 100.366 165.047 98.6697 165.288 96.2548C165.53 93.8387 162.987 92.7736 159.751 92.4505C156.515 92.1274 153.811 92.668 153.569 95.083Z" stroke="#1A2E35" stroke-width="1.33333" stroke-miterlimit="10" stroke-linecap="round" stroke-linejoin="round"/>
<path d="M168.657 96.5917L165.288 96.2548L168.657 96.5917Z" fill="white"/>
<path d="M168.657 96.5917L165.288 96.2548" stroke="#1A2E35" stroke-width="1.33333" stroke-miterlimit="10" stroke-linecap="round" stroke-linejoin="round"/>
<path d="M153.983 93.8735L141.589 86.5646L153.983 93.8735Z" fill="white"/>
<path d="M153.983 93.8735L141.589 86.5646" stroke="#1A2E35" stroke-width="1.33333" stroke-miterlimit="10" stroke-linecap="round" stroke-linejoin="round"/>
<path d="M139.462 105.242L138.878 106.662L139.462 105.242Z" fill="white"/>
<path d="M139.462 105.242L138.878 106.662" stroke="#1A2E35" stroke-width="1.33333" stroke-miterlimit="10" stroke-linecap="round" stroke-linejoin="round"/>
<path d="M175.646 92.6944C175.646 92.6944 173.759 90.2922 171.442 91.4491L175.646 92.6944Z" fill="white"/>
<path d="M175.646 92.6944C175.646 92.6944 173.759 90.2922 171.442 91.4491" stroke="#1A2E35" stroke-width="1.33333" stroke-miterlimit="10" stroke-linecap="round" stroke-linejoin="round"/>
<path d="M156.327 91.6208C156.327 91.6208 159.644 88.4595 162.835 90.6772L156.327 91.6208Z" fill="white"/>
<path d="M156.327 91.6208C156.327 91.6208 159.644 88.4595 162.835 90.6772" stroke="#1A2E35" stroke-width="1.33333" stroke-miterlimit="10" stroke-linecap="round" stroke-linejoin="round"/>
<path d="M171.458 62.3669C166.416 63.9705 157.927 65.9281 150.991 63.8351C140.388 60.6365 143.987 72.5739 141.588 75.8685" stroke="#808080" stroke-width="1.33333" stroke-linecap="round" stroke-linejoin="round"/>
<path d="M175.825 60.7703C175.825 60.7703 174.978 61.1435 173.544 61.6595" stroke="#808080" stroke-width="1.33333" stroke-linecap="round" stroke-linejoin="round"/>
<path d="M163.087 68.3099C162.522 68.1371 161.93 67.9356 161.314 67.7053" stroke="#808080" stroke-width="1.33333" stroke-linecap="round" stroke-linejoin="round"/>
<path d="M174.65 66.901C174.65 66.901 172.397 70.394 165.116 68.8394" stroke="#808080" stroke-width="1.33333" stroke-linecap="round" stroke-linejoin="round"/>
<path d="M147.575 73.7384C147.127 76.7718 145.979 81.171 143.055 85.1597" stroke="#808080" stroke-width="1.33333" stroke-linecap="round" stroke-linejoin="round"/>
<path d="M147.853 69.9664C147.853 69.9664 147.88 70.6829 147.787 71.8739" stroke="#808080" stroke-width="1.33333" stroke-linecap="round" stroke-linejoin="round"/>
<g opacity="0.300003">
<g opacity="0.300003">
<path opacity="0.300003" d="M138.368 184.343C139.226 185.111 138.727 186.527 137.576 186.533C130.377 186.566 110.951 186.614 103.419 186.185C94.0892 185.652 101.209 175.5 108.711 179.376C115.625 182.949 130.168 177.001 138.368 184.343Z" fill="black"/>
</g>
</g>
<path d="M219.561 174.348C219.561 174.348 215.203 162.737 204.265 164.58C193.216 166.442 201.687 175.581 206.946 176.398C206.946 176.398 207.744 173.21 219.561 174.348Z" fill="white"/>
<path d="M219.561 174.348C219.561 174.348 215.203 162.737 204.265 164.58C193.216 166.442 201.687 175.581 206.946 176.398C206.946 176.398 207.744 173.21 219.561 174.348Z" stroke="#1A2E35" stroke-width="1.33333" stroke-miterlimit="10" stroke-linecap="round" stroke-linejoin="round"/>
<path d="M228.825 180.936C230.268 182.379 233.73 182.503 231.402 179.376C228.825 175.916 225.92 174.756 223.938 173.871C218.749 171.555 216.726 172.019 212.032 170.99C207.337 169.962 206.46 171.871 204.835 172.761C200.966 174.882 200.037 175.25 199.059 177.382C198.082 179.515 197.016 182.29 200.037 182.29C202.791 182.29 202.969 177.737 205.634 177.915C208.3 178.092 209.633 182.29 211.499 182.29H212.21C213.809 182.29 213.895 180.959 212.917 178.868C211.938 176.777 210.877 174.894 210.877 174.894C210.877 174.894 213.195 175.949 214.475 178.67C215.755 181.391 215.99 182.537 218.343 182.537C220.695 182.537 220.533 180.79 218.192 176.931C218.192 176.931 220.3 178.089 221.453 180.267C222.605 182.447 223.206 182.29 224.716 182.29C226.692 182.29 226.559 179.025 223.049 176.893C223.049 176.893 223.827 175.938 228.825 180.936Z" fill="white"/>
<path d="M228.825 180.936C230.268 182.379 233.73 182.503 231.402 179.376C228.825 175.916 225.92 174.756 223.938 173.871C218.749 171.555 216.726 172.019 212.032 170.99C207.337 169.962 206.46 171.871 204.835 172.761C200.966 174.882 200.037 175.25 199.059 177.382C198.082 179.515 197.016 182.29 200.037 182.29C202.791 182.29 202.969 177.737 205.634 177.915C208.3 178.092 209.633 182.29 211.499 182.29H212.21C213.809 182.29 213.895 180.959 212.917 178.868C211.938 176.777 210.877 174.894 210.877 174.894C210.877 174.894 213.195 175.949 214.475 178.67C215.755 181.391 215.99 182.537 218.343 182.537C220.695 182.537 220.533 180.79 218.192 176.931C218.192 176.931 220.3 178.089 221.453 180.267C222.605 182.447 223.206 182.29 224.716 182.29C226.692 182.29 226.559 179.025 223.049 176.893C223.049 176.893 223.827 175.938 228.825 180.936Z" stroke="#1A2E35" stroke-width="1.33333" stroke-miterlimit="10" stroke-linecap="round" stroke-linejoin="round"/>
<path d="M215.117 173.139C215.117 173.139 216.497 173.073 217.362 175.405L215.117 173.139Z" fill="white"/>
<path d="M215.117 173.139C215.117 173.139 216.497 173.073 217.362 175.405" stroke="#1A2E35" stroke-miterlimit="10" stroke-linecap="round" stroke-linejoin="round"/>
<path d="M39.918 72.7538C33.1166 78.0998 26.5604 83.9064 20.291 90.1758" stroke="#1A2E35" stroke-miterlimit="10" stroke-linecap="round" stroke-linejoin="round"/>
<path d="M47.3574 67.1594C46.0534 68.0966 44.758 69.0498 43.4711 70.019" stroke="#1A2E35" stroke-miterlimit="10" stroke-linecap="round" stroke-linejoin="round"/>
<path d="M54.7876 62.0479C53.4506 62.9275 52.121 63.8231 50.7999 64.7347" stroke="#1A2E35" stroke-miterlimit="10" stroke-linecap="round" stroke-linejoin="round"/>
<path d="M109.333 36.2447C91.8966 41.6792 75.0066 49.3549 59.1167 59.2739" stroke="#1A2E35" stroke-miterlimit="10" stroke-linecap="round" stroke-linejoin="round"/>
<path d="M120.981 32.9674C118.822 33.5101 116.67 34.0869 114.523 34.6979" stroke="#1A2E35" stroke-miterlimit="10" stroke-linecap="round" stroke-linejoin="round"/>
<path d="M132.959 30.3102C130.615 30.7612 128.278 31.2516 125.949 31.7794" stroke="#1A2E35" stroke-miterlimit="10" stroke-linecap="round" stroke-linejoin="round"/>
<path d="M143.635 28.5281C141.613 28.815 139.596 29.1284 137.581 29.4717" stroke="#1A2E35" stroke-miterlimit="10" stroke-linecap="round" stroke-linejoin="round"/>
<path d="M207.941 28.9576C188.177 25.889 168.072 25.5457 148.232 27.9265" stroke="#1A2E35" stroke-miterlimit="10" stroke-linecap="round" stroke-linejoin="round"/>
<path d="M216.739 30.5081C214.924 30.1499 213.106 29.8151 211.284 29.5037" stroke="#1A2E35" stroke-miterlimit="10" stroke-linecap="round" stroke-linejoin="round"/>
<path d="M225.273 32.3713C223.457 31.9363 221.637 31.5258 219.813 31.1377" stroke="#1A2E35" stroke-miterlimit="10" stroke-linecap="round" stroke-linejoin="round"/>
<path d="M235.77 35.163C233.918 34.6203 232.06 34.1031 230.196 33.6106" stroke="#1A2E35" stroke-miterlimit="10" stroke-linecap="round" stroke-linejoin="round"/>
<path d="M299.22 65.6646C281.267 53.0778 261.839 43.5149 241.646 36.9748" stroke="#1A2E35" stroke-miterlimit="10" stroke-linecap="round" stroke-linejoin="round"/>
<path d="M307.792 71.9937C306.124 70.6982 304.441 69.4294 302.746 68.1894" stroke="#1A2E35" stroke-miterlimit="10" stroke-linecap="round" stroke-linejoin="round"/>
<path d="M316.388 79.0282C314.56 77.4534 312.711 75.9138 310.844 74.4083" stroke="#1A2E35" stroke-miterlimit="10" stroke-linecap="round" stroke-linejoin="round"/>
<path d="M328.392 90.1757C325.89 87.6744 323.343 85.2466 320.753 82.8924" stroke="#1A2E35" stroke-miterlimit="10" stroke-linecap="round" stroke-linejoin="round"/>
<path d="M245.012 51.2269C245.012 65.8757 256.888 77.7512 271.537 77.7512C286.186 77.7512 298.062 65.8757 298.062 51.2269C298.062 36.5771 286.186 24.7026 271.537 24.7026C256.888 24.7026 245.012 36.5771 245.012 51.2269Z" fill="#38BFF2"/>
<g opacity="0.300003">
<g opacity="0.300003">
<path opacity="0.300003" d="M245.419 50.5931C245.419 65.2418 257.295 77.1174 271.943 77.1174C286.593 77.1174 298.469 65.2418 298.469 50.5931C298.469 35.9432 286.593 24.0687 271.943 24.0687C257.295 24.0687 245.419 35.9432 245.419 50.5931Z" fill="white"/>
</g>
</g>
<path d="M245.013 51.227C245.013 65.8757 256.888 77.7513 271.537 77.7513C286.187 77.7513 298.062 65.8757 298.062 51.227C298.062 36.5771 286.187 24.7027 271.537 24.7027C256.888 24.7027 245.013 36.5771 245.013 51.227Z" stroke="#1A2E35" stroke-miterlimit="10" stroke-linecap="round" stroke-linejoin="round"/>
<path d="M322.934 125.897H338.237C345.279 125.897 350.987 120.189 350.987 113.147V97.8438C350.987 90.8025 345.279 85.094 338.237 85.094H322.934C315.893 85.094 310.184 90.8025 310.184 97.8438V113.147C310.184 120.189 315.893 125.897 322.934 125.897Z" fill="#38BFF2"/>
<path d="M322.934 125.897H338.237C345.279 125.897 350.987 120.189 350.987 113.147V97.8438C350.987 90.8025 345.279 85.094 338.237 85.094H322.934C315.893 85.094 310.184 90.8025 310.184 97.8438V113.147C310.184 120.189 315.893 125.897 322.934 125.897Z" stroke="#1A2E35" stroke-miterlimit="10" stroke-linecap="round" stroke-linejoin="round"/>
<path d="M345.372 106.482V104.51L337.214 100.991V103.124L342.839 105.496L337.214 107.868V110.001L345.372 106.482Z" fill="white"/>
<path d="M345.372 106.482V104.51L337.214 100.991V103.124L342.839 105.496L337.214 107.868V110.001L345.372 106.482Z" stroke="#1A2E35" stroke-miterlimit="10" stroke-linecap="round" stroke-linejoin="round"/>
<path d="M328.174 96.1663H325.642L332.999 114.825H335.53L328.174 96.1663Z" fill="white"/>
<path d="M328.174 96.1663H325.642L332.999 114.825H335.53L328.174 96.1663Z" stroke="#1A2E35" stroke-miterlimit="10" stroke-linecap="round" stroke-linejoin="round"/>
<path d="M323.957 107.868L318.332 105.496L323.957 103.124V100.991L315.8 104.51V106.482L323.957 110.001V107.868Z" fill="white"/>
<path d="M323.957 107.868L318.332 105.496L323.957 103.124V100.991L315.8 104.51V106.482L323.957 110.001V107.868Z" stroke="#1A2E35" stroke-miterlimit="10" stroke-linecap="round" stroke-linejoin="round"/>
<path d="M60.7125 45.2253C60.7125 57.7289 70.8491 67.8654 83.3515 67.8654C95.8561 67.8654 105.993 57.7289 105.993 45.2253C105.993 32.7207 95.8561 22.5853 83.3515 22.5853C70.8491 22.5853 60.7125 32.7207 60.7125 45.2253Z" fill="#38BFF2"/>
<g opacity="0.199997">
<g opacity="0.199997">
<path opacity="0.199997" d="M60.5651 45.6644C60.5651 58.168 70.7016 68.3045 83.2041 68.3045C95.7087 68.3045 105.845 58.168 105.845 45.6644C105.845 33.1598 95.7087 23.0244 83.2041 23.0244C70.7016 23.0244 60.5651 33.1598 60.5651 45.6644Z" fill="black"/>
</g>
</g>
<path d="M60.712 45.2254C60.712 57.7289 70.8486 67.8655 83.351 67.8655C95.8557 67.8655 105.992 57.7289 105.992 45.2254C105.992 32.7208 95.8557 22.5853 83.351 22.5853C70.8486 22.5853 60.712 32.7208 60.712 45.2254Z" stroke="#1A2E35" stroke-miterlimit="10" stroke-linecap="round" stroke-linejoin="round"/>
<path d="M170.135 50.4576H190.593C198.6 50.4576 205.092 43.9654 205.092 35.9571V15.5006C205.092 7.49226 198.6 1.00005 190.593 1.00005H170.135C162.127 1.00005 155.635 7.49226 155.635 15.5006V35.9571C155.635 43.9654 162.127 50.4576 170.135 50.4576Z" fill="#38BFF2"/>
<path d="M170.135 50.4576H190.593C198.6 50.4576 205.092 43.9654 205.092 35.9571V15.5006C205.092 7.49225 198.6 1.00005 190.593 1.00005H170.135C162.127 1.00005 155.635 7.49225 155.635 15.5006V35.9571C155.635 43.9654 162.127 50.4576 170.135 50.4576Z" stroke="#1A2E35" stroke-miterlimit="10" stroke-linecap="round" stroke-linejoin="round"/>
<path d="M0.917789 93.1079C0.917789 105.579 11.0266 115.689 23.4992 115.689C35.9708 115.689 46.0796 105.579 46.0796 93.1079C46.0796 80.6363 35.9708 70.5265 23.4992 70.5265C11.0266 70.5265 0.917789 80.6363 0.917789 93.1079Z" fill="#38BFF2"/>
<g opacity="0.300003">
<g opacity="0.300003">
<path opacity="0.300003" d="M1.51105 93.5641C1.51105 106.036 11.6199 116.146 24.0925 116.146C36.564 116.146 46.6729 106.036 46.6729 93.5641C46.6729 81.0925 36.564 70.9826 24.0925 70.9826C11.6199 70.9826 1.51105 81.0925 1.51105 93.5641Z" fill="white"/>
</g>
</g>
<path d="M0.918278 93.1077C0.918278 105.579 11.0271 115.689 23.4997 115.689C35.9713 115.689 46.0801 105.579 46.0801 93.1077C46.0801 80.6362 35.9713 70.5263 23.4997 70.5263C11.0271 70.5263 0.918278 80.6362 0.918278 93.1077Z" stroke="#1A2E35" stroke-miterlimit="10" stroke-linecap="round" stroke-linejoin="round"/>
<path d="M290.448 353.137H294.4L295.466 196.131H290.448V353.137Z" fill="#868686"/>
<path d="M290.448 353.137H294.4L295.466 196.131H290.448V353.137Z" stroke="#1A2E35" stroke-width="1.33333" stroke-miterlimit="10" stroke-linecap="round" stroke-linejoin="round"/>
<path d="M286.497 353.137H290.448V196.131H285.431L286.497 353.137Z" fill="#9A9A9A"/>
<path d="M286.497 353.137H290.448V196.131H285.431L286.497 353.137Z" stroke="#1A2E35" stroke-width="1.33333" stroke-miterlimit="10" stroke-linecap="round" stroke-linejoin="round"/>
<path d="M64.668 196.131H335.707V186.518H64.668V196.131Z" fill="#1A2E35" stroke="#1A2E35" stroke-width="1.33333" stroke-miterlimit="10" stroke-linecap="round" stroke-linejoin="round"/>
<path d="M8.02286 196.131H68.7109V186.518H8.02286V196.131Z" fill="#868686" stroke="#1A2E35" stroke-width="1.33333" stroke-miterlimit="10" stroke-linecap="round" stroke-linejoin="round"/>
<path d="M52.3678 211.979H321.826V196.13H52.3678V211.979Z" fill="#38BFF2" stroke="#1A2E35" stroke-width="1.33333" stroke-miterlimit="10"/>
<path d="M52.3677 211.979H20.991V196.13H52.3677V211.979Z" fill="#38BFF2"/>
<g opacity="0.300003">
<path opacity="0.300003" d="M52.3672 211.979H20.9905V196.131H52.3672V211.979Z" fill="black"/>
</g>
<path d="M52.3677 211.979H20.991V196.13H52.3677V211.979Z" stroke="#1A2E35" stroke-width="1.33333" stroke-miterlimit="10"/>
<path d="M52.3667 353.137H56.3171L57.3833 196.131H52.3667V353.137Z" fill="#868686"/>
<path d="M52.3667 353.137H56.3171L57.3833 196.131H52.3667V353.137Z" stroke="#1A2E35" stroke-width="1.33333" stroke-miterlimit="10" stroke-linecap="round" stroke-linejoin="round"/>
<path d="M48.4158 353.137H52.3672V196.131H47.3496L48.4158 353.137Z" fill="#9A9A9A"/>
<path d="M48.4158 353.137H52.3672V196.131H47.3496L48.4158 353.137Z" stroke="#1A2E35" stroke-width="1.33333" stroke-miterlimit="10" stroke-linecap="round" stroke-linejoin="round"/>
<path d="M321.825 353.137H325.777L326.843 196.131H321.825V353.137Z" fill="#868686"/>
<path d="M321.825 353.137H325.777L326.843 196.131H321.825V353.137Z" stroke="#1A2E35" stroke-width="1.33333" stroke-miterlimit="10" stroke-linecap="round" stroke-linejoin="round"/>
<path d="M317.873 353.137H321.824V196.131H316.807L317.873 353.137Z" fill="#9A9A9A"/>
<path d="M317.873 353.137H321.824V196.131H316.807L317.873 353.137Z" stroke="#1A2E35" stroke-width="1.33333" stroke-miterlimit="10" stroke-linecap="round" stroke-linejoin="round"/>
<path d="M20.9908 353.137H24.9411L26.0073 196.131H20.9908V353.137Z" fill="#868686"/>
<path d="M20.9908 353.137H24.9411L26.0073 196.131H20.9908V353.137Z" stroke="#1A2E35" stroke-width="1.33333" stroke-miterlimit="10" stroke-linecap="round" stroke-linejoin="round"/>
<path d="M17.0393 353.137H20.9907V196.131H15.9731L17.0393 353.137Z" fill="#9A9A9A"/>
<path d="M17.0393 353.137H20.9907V196.131H15.9731L17.0393 353.137Z" stroke="#1A2E35" stroke-width="1.33333" stroke-miterlimit="10" stroke-linecap="round" stroke-linejoin="round"/>
<path d="M160.556 185.452H192.322C192.971 185.452 193.498 184.925 193.498 184.275V181.653L159.379 182.719V184.275C159.379 184.925 159.906 185.452 160.556 185.452Z" fill="#868686"/>
<path d="M160.556 185.452H192.322C192.971 185.452 193.498 184.925 193.498 184.275V181.653L159.379 182.719V184.275C159.379 184.925 159.906 185.452 160.556 185.452Z" stroke="#1A2E35" stroke-width="1.33333" stroke-miterlimit="10" stroke-linecap="round" stroke-linejoin="round"/>
<path d="M197.041 185.452H260.901C261.925 185.452 262.923 184.694 263.234 183.68L276.941 139.176C277.318 137.955 276.558 136.872 275.328 136.872H211.467C210.444 136.872 209.446 137.63 209.134 138.644L195.427 183.148C195.05 184.367 195.81 185.452 197.041 185.452Z" fill="#9A9A9A"/>
<path d="M197.041 185.452H260.901C261.925 185.452 262.923 184.694 263.234 183.68L276.941 139.176C277.318 137.955 276.558 136.872 275.328 136.872H211.467C210.444 136.872 209.446 137.63 209.134 138.644L195.427 183.148C195.05 184.367 195.81 185.452 197.041 185.452Z" stroke="#1A2E35" stroke-width="1.33333" stroke-miterlimit="10" stroke-linecap="round" stroke-linejoin="round"/>
<path d="M192.558 183.148L206.265 138.644C206.578 137.63 207.576 136.872 208.598 136.872H211.467C210.445 136.872 209.447 137.63 209.134 138.644L195.427 183.148C195.051 184.368 195.81 185.452 197.041 185.452H194.172C192.941 185.452 192.182 184.368 192.558 183.148Z" fill="#868686"/>
<path d="M192.558 183.148L206.265 138.644C206.578 137.63 207.576 136.872 208.598 136.872H211.467C210.445 136.872 209.447 137.63 209.134 138.644L195.427 183.148C195.051 184.368 195.81 185.452 197.041 185.452H194.172C192.941 185.452 192.182 184.368 192.558 183.148Z" stroke="#1A2E35" stroke-width="1.33333" stroke-miterlimit="10" stroke-linecap="round" stroke-linejoin="round"/>
<path d="M232.234 161.161C231.966 163.343 233.518 165.112 235.699 165.112C237.881 165.112 239.867 163.343 240.135 161.161C240.402 158.98 238.851 157.211 236.669 157.211C234.488 157.211 232.501 158.98 232.234 161.161Z" fill="white"/>
<path d="M232.234 161.161C231.966 163.343 233.518 165.112 235.699 165.112C237.881 165.112 239.867 163.343 240.135 161.161C240.402 158.98 238.851 157.211 236.669 157.211C234.488 157.211 232.501 158.98 232.234 161.161Z" stroke="#1A2E35" stroke-width="1.33333" stroke-miterlimit="10" stroke-linecap="round" stroke-linejoin="round"/>
<path d="M87.2397 53.0355H87.6524C88.5545 53.0355 89.0181 52.6237 89.0181 51.2069V47.3405C89.0181 46.4125 89.353 45.4335 90.5901 45.0726V45.0216C89.353 44.6608 89.0181 43.6803 89.0181 42.753V38.8873C89.0181 37.4698 88.5545 37.058 87.6524 37.058H87.2397V34.7376H88.6831C90.2803 34.7376 91.544 35.6397 91.544 37.5992V42.3404C91.544 43.5265 91.8782 43.8873 93.167 43.8873V46.2062C91.8782 46.2062 91.544 46.567 91.544 47.7523V52.495C91.544 54.453 90.2803 55.3551 88.6831 55.3551H87.2397V53.0355Z" fill="white"/>
<path d="M86.9609 53.3069H87.3991C88.3572 53.3069 88.8496 52.8793 88.8496 51.4087V47.3949C88.8496 46.4316 89.2053 45.4153 90.5191 45.0408V44.9878C89.2053 44.6132 88.8496 43.5954 88.8496 42.6328V38.6199C88.8496 37.1485 88.3572 36.7209 87.3991 36.7209H86.9609V34.3122H88.4938C90.19 34.3122 91.5321 35.2487 91.5321 37.2828V42.2045C91.5321 43.4358 91.887 43.8103 93.2558 43.8103V46.2175C91.887 46.2175 91.5321 46.592 91.5321 47.8225V52.7458C91.5321 54.7783 90.19 55.7148 88.4938 55.7148H86.9609V53.3069Z" stroke="#1A2E35" stroke-miterlimit="10" stroke-linecap="round" stroke-linejoin="round"/>
<path d="M80.3877 53.0355H79.9751C79.073 53.0355 78.6094 52.6237 78.6094 51.2069V47.3405C78.6094 46.4125 78.2744 45.4335 77.0373 45.0726V45.0216C78.2744 44.6608 78.6094 43.6803 78.6094 42.753V38.8873C78.6094 37.4698 79.073 37.058 79.9751 37.058H80.3877V34.7376H78.9443C77.3472 34.7376 76.0835 35.6397 76.0835 37.5992V42.3404C76.0835 43.5265 75.7493 43.8873 74.4604 43.8873V46.2062C75.7493 46.2062 76.0835 46.567 76.0835 47.7523V52.495C76.0835 54.453 77.3472 55.3551 78.9443 55.3551H80.3877V53.0355Z" fill="white"/>
<path d="M80.666 53.3069H80.2278C79.2698 53.3069 78.7774 52.8793 78.7774 51.4087V47.3949C78.7774 46.4316 78.4217 45.4153 77.1079 45.0408V44.9878C78.4217 44.6132 78.7774 43.5954 78.7774 42.6328V38.6199C78.7774 37.1485 79.2698 36.7209 80.2278 36.7209H80.666V34.3122H79.1331C77.4369 34.3122 76.0948 35.2487 76.0948 37.2828V42.2045C76.0948 43.4358 75.7399 43.8103 74.3711 43.8103V46.2175C75.7399 46.2175 76.0948 46.592 76.0948 47.8225V52.7458C76.0948 54.7783 77.4369 55.7148 79.1331 55.7148H80.666V53.3069Z" stroke="#1A2E35" stroke-miterlimit="10" stroke-linecap="round" stroke-linejoin="round"/>
<mask id="path-192-outside-1_21_1460" maskUnits="userSpaceOnUse" x="172.939" y="19.2898" width="20" height="20" fill="black">
<rect fill="white" x="172.939" y="19.2898" width="20" height="20"/>
<path fill-rule="evenodd" clip-rule="evenodd" d="M185.3 32.9212V35.662C185.3 37.5289 182.074 38.0055 180.295 38.0055H177.117C175.621 37.8996 173.939 37.4097 173.939 35.662V31.6635C173.939 28.9578 176.133 26.7644 178.838 26.7644H179.778C183.354 26.7644 186.253 23.8656 186.253 20.2898H189.113C189.894 20.4752 191.457 21.8469 191.457 25.8508C191.457 30.2375 186.867 31.7296 182.48 31.7296H179.58V32.7226H185.3V32.9212ZM183.314 36.0195C183.665 36.0195 183.95 35.735 183.95 35.384C183.95 35.033 183.665 34.7484 183.314 34.7484C182.963 34.7484 182.679 35.033 182.679 35.384C182.679 35.735 182.963 36.0195 183.314 36.0195Z"/>
</mask>
<path fill-rule="evenodd" clip-rule="evenodd" d="M185.3 32.9212V35.662C185.3 37.5289 182.074 38.0055 180.295 38.0055H177.117C175.621 37.8996 173.939 37.4097 173.939 35.662V31.6635C173.939 28.9578 176.133 26.7644 178.838 26.7644H179.778C183.354 26.7644 186.253 23.8656 186.253 20.2898H189.113C189.894 20.4752 191.457 21.8469 191.457 25.8508C191.457 30.2375 186.867 31.7296 182.48 31.7296H179.58V32.7226H185.3V32.9212ZM183.314 36.0195C183.665 36.0195 183.95 35.735 183.95 35.384C183.95 35.033 183.665 34.7484 183.314 34.7484C182.963 34.7484 182.679 35.033 182.679 35.384C182.679 35.735 182.963 36.0195 183.314 36.0195Z" fill="white"/>
<path d="M177.117 38.0055L177.047 39.003L177.082 39.0055H177.117V38.0055ZM186.253 20.2898V19.2898H185.253V20.2898H186.253ZM189.113 20.2898L189.344 19.3168L189.23 19.2898H189.113V20.2898ZM179.58 31.7296V30.7296H178.58V31.7296H179.58ZM179.58 32.7226H178.58V33.7226H179.58V32.7226ZM185.3 32.7226H186.3V31.7226H185.3V32.7226ZM186.3 35.662V32.9212H184.3V35.662H186.3ZM180.295 39.0055C181.247 39.0055 182.618 38.8808 183.789 38.4798C184.869 38.1098 186.3 37.3038 186.3 35.662H184.3C184.3 35.887 184.118 36.2528 183.14 36.5878C182.253 36.8919 181.122 37.0055 180.295 37.0055V39.0055ZM177.117 39.0055H180.295V37.0055H177.117V39.0055ZM172.939 35.662C172.939 36.9386 173.592 37.8049 174.464 38.3133C175.269 38.7827 176.246 38.9463 177.047 39.003L177.188 37.008C176.493 36.9588 175.881 36.8245 175.471 36.5856C175.128 36.3856 174.939 36.1331 174.939 35.662H172.939ZM172.939 31.6635V35.662H174.939V31.6635H172.939ZM178.838 25.7644C175.58 25.7644 172.939 28.4056 172.939 31.6635H174.939C174.939 29.5101 176.685 27.7644 178.838 27.7644V25.7644ZM179.778 25.7644H178.838V27.7644H179.778V25.7644ZM185.253 20.2898C185.253 23.3133 182.802 25.7644 179.778 25.7644V27.7644C183.907 27.7644 187.253 24.4179 187.253 20.2898H185.253ZM189.113 19.2898H186.253V21.2898H189.113V19.2898ZM192.457 25.8508C192.457 21.6734 190.807 19.6641 189.344 19.3168L188.882 21.2628C188.882 21.2628 188.884 21.2632 188.888 21.2645C188.892 21.2657 188.897 21.2676 188.905 21.2704C188.919 21.2762 188.94 21.2852 188.965 21.2988C189.016 21.3263 189.083 21.3701 189.162 21.4368C189.319 21.5699 189.515 21.7887 189.706 22.1292C190.09 22.81 190.457 23.9741 190.457 25.8508H192.457ZM182.48 32.7296C184.76 32.7296 187.191 32.3457 189.091 31.3139C191.043 30.2531 192.457 28.4796 192.457 25.8508H190.457C190.457 27.6087 189.575 28.7746 188.136 29.5565C186.643 30.3674 184.586 30.7296 182.48 30.7296V32.7296ZM179.58 32.7296H182.48V30.7296H179.58V32.7296ZM180.58 32.7226V31.7296H178.58V32.7226H180.58ZM185.3 31.7226H179.58V33.7226H185.3V31.7226ZM186.3 32.9212V32.7226H184.3V32.9212H186.3ZM182.95 35.384C182.95 35.1827 183.113 35.0195 183.314 35.0195V37.0195C184.217 37.0195 184.95 36.2873 184.95 35.384H182.95ZM183.314 35.7484C183.113 35.7484 182.95 35.5853 182.95 35.384H184.95C184.95 34.4807 184.217 33.7484 183.314 33.7484V35.7484ZM183.679 35.384C183.679 35.5853 183.515 35.7484 183.314 35.7484V33.7484C182.411 33.7484 181.679 34.4807 181.679 35.384H183.679ZM183.314 35.0195C183.515 35.0195 183.679 35.1827 183.679 35.384H181.679C181.679 36.2873 182.411 37.0195 183.314 37.0195V35.0195Z" fill="#1A2E35" mask="url(#path-192-outside-1_21_1460)"/>
<mask id="path-194-outside-2_21_1460" maskUnits="userSpaceOnUse" x="166.141" y="12.9679" width="20" height="20" fill="black">
<rect fill="white" x="166.141" y="12.9679" width="20" height="20"/>
<path fill-rule="evenodd" clip-rule="evenodd" d="M173.781 19.3366L173.781 16.5958C173.781 14.7289 177.006 14.2522 178.786 14.2522L181.963 14.2522C183.46 14.3582 185.141 14.8481 185.141 16.5958L185.141 20.5943C185.141 23.2999 182.948 25.4934 180.242 25.4934L179.302 25.4934C175.726 25.4934 172.828 28.3921 172.828 31.9679L169.968 31.9679C169.186 31.7826 167.624 30.4109 167.624 26.4069C167.624 22.0202 172.214 20.5282 176.601 20.5282L179.501 20.5282L179.501 19.5352L173.781 19.5352L173.781 19.3366ZM175.767 16.2383C175.416 16.2383 175.131 16.5229 175.131 16.8738C175.131 17.2248 175.416 17.5094 175.767 17.5094C176.118 17.5094 176.402 17.2248 176.402 16.8739C176.402 16.5229 176.118 16.2383 175.767 16.2383Z"/>
</mask>
<path fill-rule="evenodd" clip-rule="evenodd" d="M173.781 19.3366L173.781 16.5958C173.781 14.7289 177.006 14.2522 178.786 14.2522L181.963 14.2522C183.46 14.3582 185.141 14.8481 185.141 16.5958L185.141 20.5943C185.141 23.2999 182.948 25.4934 180.242 25.4934L179.302 25.4934C175.726 25.4934 172.828 28.3921 172.828 31.9679L169.968 31.9679C169.186 31.7826 167.624 30.4109 167.624 26.4069C167.624 22.0202 172.214 20.5282 176.601 20.5282L179.501 20.5282L179.501 19.5352L173.781 19.5352L173.781 19.3366ZM175.767 16.2383C175.416 16.2383 175.131 16.5229 175.131 16.8738C175.131 17.2248 175.416 17.5094 175.767 17.5094C176.118 17.5094 176.402 17.2248 176.402 16.8739C176.402 16.5229 176.118 16.2383 175.767 16.2383Z" fill="white"/>
<path d="M173.781 16.5958L174.781 16.5958L173.781 16.5958ZM173.781 19.3366L172.781 19.3366L173.781 19.3366ZM181.963 14.2522L182.034 13.2547L181.999 13.2522L181.963 13.2522L181.963 14.2522ZM172.828 31.9679L172.828 32.9679L173.828 32.9679L173.828 31.9679L172.828 31.9679ZM169.968 31.9679L169.737 32.9409L169.851 32.9679L169.968 32.9679L169.968 31.9679ZM179.501 20.5282L179.501 21.5282L180.501 21.5282L180.501 20.5282L179.501 20.5282ZM179.501 19.5352L180.501 19.5352L180.501 18.5352L179.501 18.5352L179.501 19.5352ZM173.781 19.5352L172.781 19.5352L172.781 20.5352L173.781 20.5352L173.781 19.5352ZM172.781 16.5958L172.781 19.3366L174.781 19.3366L174.781 16.5958L172.781 16.5958ZM178.786 13.2522C177.833 13.2522 176.462 13.3769 175.292 13.7779C174.212 14.1479 172.781 14.9539 172.781 16.5958L174.781 16.5958C174.781 16.3708 174.962 16.005 175.94 15.6699C176.827 15.3659 177.959 15.2522 178.786 15.2522L178.786 13.2522ZM181.963 13.2522L178.786 13.2522L178.786 15.2522L181.963 15.2522L181.963 13.2522ZM186.141 16.5958C186.141 15.3192 185.489 14.4528 184.617 13.9445C183.812 13.475 182.835 13.3114 182.034 13.2547L181.893 15.2497C182.588 15.299 183.2 15.4333 183.61 15.6722C183.953 15.8722 184.141 16.1246 184.141 16.5958L186.141 16.5958ZM186.141 20.5943L186.141 16.5958L184.141 16.5958L184.141 20.5943L186.141 20.5943ZM180.242 26.4934C183.5 26.4934 186.141 23.8522 186.141 20.5943L184.141 20.5943C184.141 22.7477 182.395 24.4934 180.242 24.4934L180.242 26.4934ZM179.302 26.4934L180.242 26.4934L180.242 24.4934L179.302 24.4934L179.302 26.4934ZM173.828 31.9679C173.828 28.9444 176.279 26.4934 179.302 26.4934L179.302 24.4934C175.174 24.4934 171.828 27.8398 171.828 31.9679L173.828 31.9679ZM169.968 32.9679L172.828 32.9679L172.828 30.9679L169.968 30.9679L169.968 32.9679ZM166.624 26.4069C166.624 30.5844 168.273 32.5937 169.737 32.9409L170.198 30.9949C170.199 30.995 170.197 30.9945 170.193 30.9933C170.189 30.9921 170.183 30.9901 170.176 30.9873C170.161 30.9816 170.141 30.9725 170.116 30.9589C170.064 30.9315 169.997 30.8877 169.918 30.821C169.761 30.6878 169.566 30.469 169.374 30.1285C168.991 29.4478 168.624 28.2836 168.624 26.4069L166.624 26.4069ZM176.601 19.5282C174.32 19.5282 171.889 19.9121 169.99 20.9439C168.038 22.0046 166.624 23.7781 166.624 26.4069L168.624 26.4069C168.624 24.6491 169.506 23.4832 170.945 22.7012C172.437 21.8903 174.495 21.5282 176.601 21.5282L176.601 19.5282ZM179.501 19.5282L176.601 19.5282L176.601 21.5282L179.501 21.5282L179.501 19.5282ZM178.501 19.5352L178.501 20.5282L180.501 20.5282L180.501 19.5352L178.501 19.5352ZM173.781 20.5352L179.501 20.5352L179.501 18.5352L173.781 18.5352L173.781 20.5352ZM172.781 19.3366L172.781 19.5352L174.781 19.5352L174.781 19.3366L172.781 19.3366ZM176.131 16.8739C176.131 17.0751 175.968 17.2383 175.767 17.2383L175.767 15.2383C174.864 15.2383 174.131 15.9706 174.131 16.8738L176.131 16.8739ZM175.767 16.5094C175.968 16.5094 176.131 16.6726 176.131 16.8739L174.131 16.8738C174.131 17.7771 174.864 18.5094 175.767 18.5094L175.767 16.5094ZM175.402 16.8738C175.402 16.6726 175.566 16.5094 175.767 16.5094L175.767 18.5094C176.67 18.5094 177.402 17.7771 177.402 16.8739L175.402 16.8738ZM175.767 17.2383C175.566 17.2383 175.402 17.0751 175.402 16.8738L177.402 16.8739C177.402 15.9706 176.67 15.2383 175.767 15.2383L175.767 17.2383Z" fill="#1A2E35" mask="url(#path-194-outside-2_21_1460)"/>
<rect x="14.7002" y="82.9123" width="18.6256" height="4.77692" rx="1.5" fill="white" stroke="#1A2E35"/>
<rect x="14.7002" y="90.4662" width="18.6256" height="6.0359" rx="1.5" fill="white" stroke="#1A2E35"/>
<rect x="14.7002" y="99.279" width="18.6256" height="4.77692" rx="1.5" fill="white" stroke="#1A2E35"/>
<path d="M258.229 50.2359C258.111 50.7807 258.218 51.2715 258.557 51.7335M258.229 50.2359L275.616 47.2572L274.122 45.7558M258.229 50.2359L258.321 49.8169M258.229 50.2359L258.321 49.8169M258.557 51.7335C258.998 52.335 270.955 64.1899 271.297 64.3651C271.66 64.551 272.253 64.5812 272.696 64.4363M258.557 51.7335L258.96 51.4377C258.96 51.4377 258.96 51.4377 258.96 51.4377C258.96 51.4377 258.96 51.4377 258.96 51.4378L258.557 51.7335ZM272.696 64.4363C272.934 64.3583 274.109 63.2204 279.282 58.0581C284.109 53.2414 285.613 51.6987 285.728 51.4485C285.936 50.9954 285.93 50.3564 285.713 49.9256M272.696 64.4363L272.54 63.9611C272.511 63.9708 272.493 63.9808 272.493 63.9808C272.493 63.9808 272.498 63.978 272.508 63.9711M272.696 64.4363L272.541 63.9611C272.53 63.9645 272.519 63.9679 272.508 63.9711M285.713 49.9256C285.491 49.4827 273.184 37.169 272.782 36.9863M285.713 49.9256L285.267 50.1502C285.267 50.1502 285.267 50.1502 285.267 50.1502L285.713 49.9256ZM272.782 36.9863C272.433 36.8279 271.84 36.7825 271.464 36.8853M272.782 36.9863L272.575 37.4416C272.575 37.4415 272.575 37.4415 272.575 37.4415L272.782 36.9863ZM271.464 36.8853C271.228 36.9496 270.902 37.2338 269.724 38.4031M271.464 36.8853L271.595 37.3677M271.464 36.8853L271.595 37.3677M269.724 38.4031L268.629 39.4896L268.982 39.8435M269.724 38.4031L270.076 38.758C270.667 38.1716 271.032 37.8196 271.276 37.6066C271.523 37.3913 271.593 37.3685 271.595 37.3677M269.724 38.4031L270.076 38.758L268.982 39.8435M268.982 39.8435L268.627 40.1957L269.855 41.4256L271.436 43.0094M268.982 39.8435L270.209 41.0724L271.599 42.4655M271.436 43.0094L271.787 42.9374C273.125 42.6634 274.485 44.0415 274.201 45.3815L274.122 45.7558M271.436 43.0094L271.335 42.5196L271.599 42.4655M271.436 43.0094L271.74 42.7057L271.79 42.6562L271.714 42.5809L271.599 42.4655M274.122 45.7558L274.446 45.4334L274.476 45.4031L274.522 45.4497L274.667 45.5949M274.122 45.7558L274.611 45.8596L274.667 45.5949M277.302 48.243L277.621 48.2194C277.621 48.2194 277.621 48.2194 277.621 48.2194C278.187 48.1774 278.713 48.2711 279.169 48.5254C279.626 48.7803 279.976 49.1766 280.223 49.6786C280.41 50.0602 280.52 50.4363 280.52 50.8332C280.519 51.2299 280.409 51.6063 280.221 51.9885C279.256 53.9495 276.508 53.9615 275.541 51.9977L275.541 51.9977C275.443 51.7972 275.366 51.6201 275.319 51.4304L277.302 48.243ZM277.302 48.243L275.97 46.9045L274.667 45.5949M277.302 48.243L271.595 37.3677M272.508 63.9711C272.359 64.0146 272.176 64.0348 271.992 64.0254C271.811 64.0162 271.659 63.98 271.557 63.935C271.556 63.9344 271.555 63.9338 271.554 63.9331C271.528 63.9111 271.49 63.8774 271.438 63.8307C271.336 63.7378 271.193 63.6042 271.014 63.434C270.656 63.0941 270.161 62.6161 269.573 62.0439C268.399 60.8999 266.859 59.3839 265.316 57.8541C263.773 56.3243 262.228 54.7816 261.041 53.5843C260.447 52.9855 259.944 52.474 259.576 52.094C259.392 51.9039 259.243 51.7481 259.134 51.6315C259.08 51.573 259.037 51.526 259.005 51.4902C258.976 51.4578 258.964 51.4422 258.961 51.4385C258.96 51.4377 258.96 51.4374 258.96 51.4377C258.703 51.0876 258.631 50.7427 258.718 50.3424L258.718 50.3424L258.778 50.0664L263.016 45.8188L267.004 41.8219L268.211 43.0273L268.211 43.0273C268.758 43.5749 269.137 43.9654 269.374 44.226C269.445 44.305 269.5 44.3683 269.541 44.4176C269.535 44.4555 269.53 44.4918 269.525 44.5248C269.509 44.6517 269.499 44.7944 269.496 44.935C269.489 45.1974 269.5 45.5259 269.559 45.7462C269.712 46.3141 270.156 46.9152 270.654 47.2377L270.926 46.8182L270.654 47.2377L270.782 47.321V50.8335V54.3399L270.656 54.4182C270.656 54.4182 270.656 54.4182 270.656 54.4182C269.561 55.0997 269.176 56.5436 269.732 57.7183L269.732 57.7184C270.188 58.683 271.047 59.2272 272.115 59.2297C272.341 59.2302 272.537 59.2233 272.739 59.1718C272.94 59.1206 273.119 59.0328 273.324 58.9229L273.087 58.4822L273.324 58.9229C274.999 58.0252 275.224 55.8503 273.785 54.6104C273.785 54.6104 273.785 54.6104 273.785 54.6104L273.595 54.4465L273.595 50.9416V48.4142L274.149 48.9678C274.826 49.6448 275.156 49.9783 275.313 50.166C275.317 50.1713 275.321 50.1763 275.325 50.1811C275.307 50.2626 275.295 50.3469 275.287 50.4172C275.271 50.5515 275.261 50.7052 275.261 50.85L271.595 37.3676L271.595 37.3677C271.712 37.3358 271.893 37.3209 272.095 37.3364C272.275 37.3501 272.432 37.3851 272.538 37.4261C272.565 37.448 272.604 37.482 272.658 37.5297C272.765 37.6253 272.914 37.7634 273.1 37.9398C273.473 38.292 273.985 38.7874 274.591 39.3803C275.803 40.5655 277.385 42.1343 278.961 43.7118C280.538 45.2893 282.108 46.8743 283.298 48.0921C283.893 48.7012 284.391 49.2169 284.747 49.5934C284.925 49.782 285.065 49.9332 285.163 50.0427C285.212 50.0977 285.248 50.139 285.272 50.1675C285.275 50.1713 285.277 50.1747 285.28 50.1777C285.41 50.4642 285.416 50.9125 285.281 51.2226M272.508 63.9711C272.515 63.9665 272.524 63.96 272.536 63.9513C272.585 63.9144 272.659 63.8536 272.767 63.758C272.982 63.5678 273.306 63.2637 273.791 62.7946C274.758 61.8582 276.342 60.286 278.929 57.7042C281.343 55.2956 282.923 53.708 283.914 52.6918C284.41 52.1832 284.755 51.8212 284.982 51.5726C285.096 51.4479 285.176 51.3561 285.229 51.291C285.261 51.2509 285.276 51.2295 285.281 51.2226M285.281 51.2226C285.279 51.2284 285.276 51.2342 285.274 51.24C285.28 51.2274 285.284 51.2202 285.283 51.22C285.283 51.22 285.283 51.2208 285.281 51.2226ZM271.599 42.4655L271.687 42.4475C272.556 42.2694 273.395 42.6327 273.958 43.2029C274.521 43.7731 274.875 44.6167 274.69 45.4853L274.667 45.5949M258.321 49.8169L262.662 45.4657L266.651 41.4684L258.321 49.8169ZM275.37 50.0269C275.37 50.027 275.37 50.0272 275.37 50.0274L275.37 50.0266L275.37 50.0269Z" fill="white" stroke="#1A2E35"/>
</svg>
