<svg width="61" height="61" viewBox="0 0 61 61" fill="none" xmlns="http://www.w3.org/2000/svg">
<g clip-path="url(#clip0_38_3150)">
<path d="M60.363 3.17737V11.3678H0.635742V3.17737C0.635742 1.77365 1.77365 0.635742 3.17737 0.635742H57.8213C59.2251 0.635742 60.363 1.77365 60.363 3.17737Z" fill="#38BFF2"/>
<path d="M60.3643 11.3679V57.8226C60.3643 59.2268 59.227 60.3643 57.8227 60.3643H3.17737C1.77306 60.3643 0.635742 59.2268 0.635742 57.8226V11.3679H60.3643Z" fill="white"/>
<path d="M55.9163 28.8292V17.0863C55.9163 16.3844 55.3473 15.8154 54.6454 15.8154H6.35437C5.65251 15.8154 5.0835 16.3844 5.0835 17.0863V28.8292C5.0835 29.531 5.65251 30.1 6.35437 30.1H54.6455C55.3473 30.0999 55.9163 29.5309 55.9163 28.8292Z" fill="#38BFF2"/>
<path d="M28.3016 6.00183C28.3016 6.83534 27.626 7.51098 26.7925 7.51098H5.9574C5.12389 7.51098 4.44824 6.83534 4.44824 6.00183C4.44824 5.16832 5.12389 4.49268 5.9574 4.49268H26.7925C27.626 4.49268 28.3016 5.16832 28.3016 6.00183Z" fill="white"/>
<path d="M54.9973 7.55519C55.8553 7.55519 56.5508 6.85968 56.5508 6.00172C56.5508 5.14376 55.8553 4.44824 54.9973 4.44824C54.1394 4.44824 53.4438 5.14376 53.4438 6.00172C53.4438 6.85968 54.1394 7.55519 54.9973 7.55519Z" fill="white"/>
<path d="M48.7542 7.55519C49.6121 7.55519 50.3076 6.85968 50.3076 6.00172C50.3076 5.14376 49.6121 4.44824 48.7542 4.44824C47.8962 4.44824 47.2007 5.14376 47.2007 6.00172C47.2007 6.85968 47.8962 7.55519 48.7542 7.55519Z" fill="white"/>
<path d="M42.5115 7.55519C43.3694 7.55519 44.065 6.85968 44.065 6.00172C44.065 5.14376 43.3694 4.44824 42.5115 4.44824C41.6535 4.44824 40.958 5.14376 40.958 6.00172C40.958 6.85968 41.6535 7.55519 42.5115 7.55519Z" fill="white"/>
<path d="M37.4894 43.9776V35.8185C37.4894 35.1166 36.9204 34.5476 36.2185 34.5476H24.7811C24.0793 34.5476 23.5103 35.1166 23.5103 35.8185V43.9776C23.5103 44.6794 24.0793 45.2485 24.7811 45.2485H36.2185C36.9204 45.2483 37.4894 44.6794 37.4894 43.9776Z" fill="#38BFF2"/>
<path d="M19.0625 43.9776V35.8185C19.0625 35.1166 18.4935 34.5476 17.7916 34.5476H6.35437C5.65251 34.5476 5.0835 35.1166 5.0835 35.8185V43.9776C5.0835 44.6794 5.65251 45.2485 6.35437 45.2485H17.7917C18.4936 45.2483 19.0625 44.6794 19.0625 43.9776Z" fill="#38BFF2"/>
<path d="M55.9166 43.9776V35.8185C55.9166 35.1166 55.3476 34.5476 54.6458 34.5476H43.2084C42.5065 34.5476 41.9375 35.1166 41.9375 35.8185V43.9776C41.9375 44.6794 42.5065 45.2485 43.2084 45.2485H54.6458C55.3476 45.2483 55.9166 44.6794 55.9166 43.9776Z" fill="#38BFF2"/>
<path d="M60.9986 3.17749C60.9986 1.42577 59.5733 0.000488281 57.8216 0.000488281H3.17749C1.42577 0.000488281 0.000488281 1.42577 0.000488281 3.17749V57.8226C0.000488281 59.5744 1.42577 60.9996 3.17749 60.9996H57.8227C59.5744 60.9996 60.9997 59.5744 60.9997 57.8226C60.9998 57.2288 60.9987 10.1758 60.9986 3.17749ZM1.27136 3.17749C1.27136 2.12631 2.12643 1.27124 3.17761 1.27124H57.8215C58.8726 1.27124 59.7277 2.12631 59.7277 3.17749V10.7323H1.27136V3.17749ZM57.8228 59.729H3.17749C2.12631 59.729 1.27124 58.8739 1.27124 57.8228V12.0032H59.7289V57.8228C59.729 58.8739 58.874 59.729 57.8228 59.729Z" fill="#1A2E35"/>
<path d="M54.6455 15.1802H6.35449C5.30331 15.1802 4.44824 16.0352 4.44824 17.0864V28.829C4.44824 29.8802 5.30331 30.7353 6.35449 30.7353H54.6456C55.6968 30.7353 56.5519 29.8802 56.5519 28.829V17.0864C56.5518 16.0352 55.6967 15.1802 54.6455 15.1802ZM55.281 28.829C55.281 29.1797 54.9962 29.4644 54.6456 29.4644H6.35449C6.00386 29.4644 5.71912 29.1796 5.71912 28.829V17.0864C5.71912 16.7358 6.00398 16.451 6.35449 16.451H54.6456C54.9963 16.451 55.281 16.7359 55.281 17.0864V28.829Z" fill="#1A2E35"/>
<path d="M26.7927 3.85767H5.95752C4.77481 3.85767 3.81299 4.81949 3.81299 6.0022C3.81299 7.18491 4.77481 8.14673 5.95752 8.14673H26.7926C27.9753 8.14673 28.9371 7.18491 28.9371 6.0022C28.9371 4.81949 27.9754 3.85767 26.7927 3.85767ZM26.7927 6.87586H5.95752C5.47595 6.87586 5.08386 6.48365 5.08386 6.0022C5.08386 5.52075 5.47607 5.12854 5.95752 5.12854H26.7926C27.2742 5.12854 27.6663 5.52075 27.6663 6.0022C27.6663 6.48365 27.2742 6.87586 26.7927 6.87586Z" fill="#1A2E35"/>
<path d="M54.9967 3.81299C53.7898 3.81299 52.8081 4.7953 52.8081 6.0022C52.8081 7.20909 53.7898 8.19081 54.9967 8.19081C56.2036 8.19081 57.1859 7.20921 57.1859 6.0022C57.1859 4.79518 56.2036 3.81299 54.9967 3.81299ZM54.9967 6.91982C54.4904 6.91982 54.079 6.50843 54.079 6.00208C54.079 5.49573 54.4904 5.08374 54.9967 5.08374C55.5031 5.08374 55.9151 5.49573 55.9151 6.00208C55.9151 6.50843 55.5031 6.91982 54.9967 6.91982Z" fill="#1A2E35"/>
<path d="M48.7546 3.81299C47.5477 3.81299 46.5654 4.7953 46.5654 6.0022C46.5654 7.20909 47.5477 8.19081 48.7546 8.19081C49.9615 8.19081 50.9432 7.20921 50.9432 6.0022C50.9432 4.79518 49.9615 3.81299 48.7546 3.81299ZM48.7546 6.91982C48.2483 6.91982 47.8363 6.50843 47.8363 6.00208C47.8363 5.49573 48.2483 5.08374 48.7546 5.08374C49.261 5.08374 49.6724 5.49573 49.6724 6.00208C49.6724 6.50843 49.261 6.91982 48.7546 6.91982Z" fill="#1A2E35"/>
<path d="M42.5115 3.81299C41.3046 3.81299 40.3223 4.7953 40.3223 6.0022C40.3223 7.20909 41.3046 8.19081 42.5115 8.19081C43.7184 8.19081 44.7001 7.20921 44.7001 6.0022C44.7001 4.79518 43.7184 3.81299 42.5115 3.81299ZM42.5115 6.91982C42.0051 6.91982 41.5931 6.50843 41.5931 6.00208C41.5931 5.49573 42.0051 5.08374 42.5115 5.08374C43.0178 5.08374 43.4292 5.49573 43.4292 6.00208C43.4292 6.50843 43.0177 6.91982 42.5115 6.91982Z" fill="#1A2E35"/>
<path d="M19.0626 49.0605H5.08362C4.73239 49.0605 4.44824 49.3447 4.44824 49.6959C4.44824 50.0472 4.73239 50.3313 5.08362 50.3313H19.0626C19.4139 50.3313 19.698 50.0472 19.698 49.6959C19.698 49.3447 19.4139 49.0605 19.0626 49.0605Z" fill="#1A2E35"/>
<path d="M19.0626 55.2812H5.08362C4.73239 55.2812 4.44824 55.5654 4.44824 55.9166C4.44824 56.2678 4.73239 56.552 5.08362 56.552H19.0626C19.4139 56.552 19.698 56.2678 19.698 55.9166C19.698 55.5654 19.4139 55.2812 19.0626 55.2812Z" fill="#1A2E35"/>
<path d="M19.0626 52.1711H5.08362C4.73239 52.1711 4.44824 52.4553 4.44824 52.8065C4.44824 53.1577 4.73239 53.4419 5.08362 53.4419H19.0626C19.4139 53.4419 19.698 53.1577 19.698 52.8065C19.698 52.4553 19.4139 52.1711 19.0626 52.1711Z" fill="#1A2E35"/>
<path d="M37.4894 49.0605H23.5104C23.1591 49.0605 22.875 49.3447 22.875 49.6959C22.875 50.0472 23.1591 50.3313 23.5104 50.3313H37.4894C37.8406 50.3313 38.1248 50.0472 38.1248 49.6959C38.1248 49.3447 37.8406 49.0605 37.4894 49.0605Z" fill="#1A2E35"/>
<path d="M37.4894 55.2812H23.5104C23.1591 55.2812 22.875 55.5654 22.875 55.9166C22.875 56.2678 23.1591 56.552 23.5104 56.552H37.4894C37.8406 56.552 38.1248 56.2678 38.1248 55.9166C38.1248 55.5654 37.8406 55.2812 37.4894 55.2812Z" fill="#1A2E35"/>
<path d="M37.4894 52.1711H23.5104C23.1591 52.1711 22.875 52.4553 22.875 52.8065C22.875 53.1577 23.1591 53.4419 23.5104 53.4419H37.4894C37.8406 53.4419 38.1248 53.1577 38.1248 52.8065C38.1248 52.4553 37.8406 52.1711 37.4894 52.1711Z" fill="#1A2E35"/>
<path d="M55.9166 49.0605H41.9376C41.5864 49.0605 41.3022 49.3447 41.3022 49.6959C41.3022 50.0472 41.5864 50.3313 41.9376 50.3313H55.9166C56.2679 50.3313 56.552 50.0472 56.552 49.6959C56.552 49.3447 56.2679 49.0605 55.9166 49.0605Z" fill="#1A2E35"/>
<path d="M55.9166 55.2812H41.9376C41.5864 55.2812 41.3022 55.5654 41.3022 55.9166C41.3022 56.2678 41.5864 56.552 41.9376 56.552H55.9166C56.2679 56.552 56.552 56.2678 56.552 55.9166C56.552 55.5654 56.2679 55.2812 55.9166 55.2812Z" fill="#1A2E35"/>
<path d="M55.9166 52.1711H41.9376C41.5864 52.1711 41.3022 52.4553 41.3022 52.8065C41.3022 53.1577 41.5864 53.4419 41.9376 53.4419H55.9166C56.2679 53.4419 56.552 53.1577 56.552 52.8065C56.552 52.4553 56.2679 52.1711 55.9166 52.1711Z" fill="#1A2E35"/>
<path d="M36.2186 33.9124H24.7813C23.7301 33.9124 22.875 34.7674 22.875 35.8186V43.9778C22.875 45.029 23.7301 45.8841 24.7813 45.8841H36.2186C37.2698 45.8841 38.1249 45.029 38.1249 43.9778V35.8186C38.1249 34.7674 37.2698 33.9124 36.2186 33.9124ZM36.8541 43.9778C36.8541 44.3285 36.5693 44.6132 36.2188 44.6132H24.7814C24.4307 44.6132 24.146 44.3283 24.146 43.9778V35.8186C24.146 35.468 24.4309 35.1832 24.7814 35.1832H36.2188C36.5694 35.1832 36.8541 35.4681 36.8541 35.8186V43.9778Z" fill="#1A2E35"/>
<path d="M17.7919 33.9124H6.35449C5.30331 33.9124 4.44824 34.7674 4.44824 35.8186V43.9778C4.44824 45.029 5.30331 45.8841 6.35449 45.8841H17.7919C18.8431 45.8841 19.6981 45.029 19.6981 43.9778V35.8186C19.698 34.7674 18.8429 33.9124 17.7919 33.9124ZM18.4272 43.9778C18.4272 44.3285 18.1424 44.6132 17.7919 44.6132H6.35449C6.00386 44.6132 5.71912 44.3283 5.71912 43.9778V35.8186C5.71912 35.468 6.00398 35.1832 6.35449 35.1832H17.7919C18.1425 35.1832 18.4272 35.4681 18.4272 35.8186V43.9778Z" fill="#1A2E35"/>
<path d="M54.6454 33.9124H43.208C42.1568 33.9124 41.3018 34.7674 41.3018 35.8186V43.9778C41.3018 45.029 42.1568 45.8841 43.208 45.8841H54.6454C55.6966 45.8841 56.5516 45.029 56.5516 43.9778V35.8186C56.5516 34.7674 55.6966 33.9124 54.6454 33.9124ZM55.2809 43.9778C55.2809 44.3285 54.996 44.6132 54.6455 44.6132H43.2081C42.8575 44.6132 42.5728 44.3283 42.5728 43.9778V35.8186C42.5728 35.468 42.8576 35.1832 43.2081 35.1832H54.6455C54.9961 35.1832 55.2809 35.4681 55.2809 35.8186V43.9778Z" fill="#1A2E35"/>
</g>
<defs>
<clipPath id="clip0_38_3150">
<rect width="61" height="61" fill="white"/>
</clipPath>
</defs>
</svg>
