<svg width="70" height="61" viewBox="0 0 70 61" fill="none" xmlns="http://www.w3.org/2000/svg">
<path d="M68.9174 4.03239V39.613H1.08252V4.03239C1.08252 2.41479 2.37424 1.10461 3.96906 1.10461H66.0309C67.6257 1.10448 68.9174 2.41479 68.9174 4.03239Z" fill="white"/>
<path d="M1.08252 39.6139V46.1539C1.08252 47.771 2.37492 49.0817 3.96906 49.0817H66.0309C67.6252 49.0817 68.9174 47.7709 68.9174 46.1539V39.6139H1.08252Z" fill="#38BFF2"/>
<path d="M27.4297 49.0818H42.5697V55.9716H27.4297V49.0818Z" fill="#D7E9FF"/>
<path d="M48.6389 56.8238L50.4433 58.6447C50.8997 59.1053 50.5781 59.8956 49.9343 59.8956H20.0654C19.4216 59.8956 19.1 59.1053 19.5564 58.6447L21.3608 56.8238C21.9017 56.278 22.6336 55.9716 23.3967 55.9716H46.6029C47.3661 55.9716 48.0981 56.278 48.6389 56.8238Z" fill="#38BFF2"/>
<path d="M35.0001 45.8043C35.7932 45.8043 36.4362 45.1522 36.4362 44.3477C36.4362 43.5433 35.7932 42.8911 35.0001 42.8911C34.2069 42.8911 33.564 43.5433 33.564 44.3477C33.564 45.1522 34.2069 45.8043 35.0001 45.8043Z" fill="#D7E9FF"/>
<path d="M69.6392 4.03227C69.6392 2.01431 68.0205 0.372437 66.0309 0.372437H3.96912C1.97959 0.372437 0.36084 2.01431 0.36084 4.03227V46.1543C0.36084 48.1722 1.97959 49.8141 3.96912 49.8141H26.7082V55.2395H23.3966C22.436 55.2395 21.5326 55.6183 20.8525 56.3053L19.0477 58.1259C18.137 59.0449 18.7796 60.6277 20.0653 60.6277H49.9348C51.2198 60.6277 51.8637 59.0456 50.9524 58.1259L49.1476 56.3053C48.4675 55.6177 47.5641 55.2395 46.6035 55.2395H43.2919V49.8141H66.0309C68.0205 49.8141 69.6392 48.1722 69.6392 46.1543C69.6392 31.1918 69.6392 20.0715 69.6392 4.03227ZM1.80418 4.03227C1.80418 2.82138 2.77529 1.8364 3.96912 1.8364H66.0309C67.2248 1.8364 68.1959 2.82138 68.1959 4.03227V38.8811H1.80418V4.03227ZM48.1293 57.3423C48.13 57.343 48.13 57.343 48.13 57.343L49.9348 59.1636H20.0653L21.8708 57.3423C22.2789 56.9306 22.8207 56.7033 23.3966 56.7033H46.6035C47.1792 56.7033 47.7212 56.9306 48.1293 57.3423ZM41.8487 55.2394H28.1514V49.814H41.8487V55.2394ZM68.1959 46.1543C68.1959 47.3652 67.2248 48.3501 66.0309 48.3501C45.3319 48.3501 24.6188 48.3501 3.96912 48.3501C2.77529 48.3501 1.80418 47.3652 1.80418 46.1543V40.3457H68.1959V46.1543Z" fill="#1A2E35"/>
<path d="M34.9998 46.5366C36.1894 46.5366 37.1577 45.5545 37.1577 44.348C37.1577 43.1414 36.1895 42.1592 34.9998 42.1592C33.8102 42.1592 32.8418 43.1412 32.8418 44.348C32.8418 45.5545 33.8102 46.5366 34.9998 46.5366ZM34.9998 43.6231C35.3937 43.6231 35.7144 43.9483 35.7144 44.348C35.7144 44.7475 35.3938 45.0728 34.9998 45.0728C34.6057 45.0728 34.2851 44.7476 34.2851 44.348C34.2851 43.9483 34.6059 43.6231 34.9998 43.6231Z" fill="#1A2E35"/>
<path d="M56.0665 9H7.7216C7.32265 9 7 9.3274 7 9.73191C7 10.1364 7.32279 10.4638 7.7216 10.4638H56.0665C56.4655 10.4638 56.7881 10.1364 56.7881 9.73191C56.7881 9.3274 56.4653 9 56.0665 9Z" fill="#1A2E35"/>
<path d="M56.0665 14H7.7216C7.32265 14 7 14.3274 7 14.7319C7 15.1364 7.32279 15.4638 7.7216 15.4638H56.0665C56.4655 15.4638 56.7881 15.1364 56.7881 14.7319C56.7881 14.3274 56.4653 14 56.0665 14Z" fill="#1A2E35"/>
<path d="M46.0665 19H7.7216C7.32265 19 7 19.3274 7 19.7319C7 20.1364 7.32279 20.4638 7.7216 20.4638H46.0665C46.4655 20.4638 46.7881 20.1364 46.7881 19.7319C46.7881 19.3274 46.4653 19 46.0665 19Z" fill="#1A2E35"/>
<path d="M36.0665 24H7.7216C7.32265 24 7 24.3274 7 24.7319C7 25.1364 7.32279 25.4638 7.7216 25.4638H36.0665C36.4655 25.4638 36.7881 25.1364 36.7881 24.7319C36.7881 24.3274 36.4653 24 36.0665 24Z" fill="#1A2E35"/>
<path d="M26.0665 29H7.7216C7.32265 29 7 29.3274 7 29.7319C7 30.1364 7.32279 30.4638 7.7216 30.4638H26.0665C26.4655 30.4638 26.7881 30.1364 26.7881 29.7319C26.7881 29.3274 26.4653 29 26.0665 29Z" fill="#1A2E35"/>
</svg>
