<svg width="72" height="72" viewBox="0 0 72 72" fill="none" xmlns="http://www.w3.org/2000/svg">
<path d="M63.5554 11.1207V63.2324C63.5554 64.6005 62.4479 65.708 61.0798 65.708H10.9747C9.60662 65.708 8.4991 64.6005 8.4991 63.2324V59.988C7.16363 59.988 5.95189 59.4408 5.07889 58.5678C4.19294 57.6949 3.65869 56.4766 3.65869 55.1411H8.4991V11.1207C8.4991 9.75265 9.60662 8.64514 10.9747 8.64514H61.0798C62.448 8.64514 63.5554 9.75265 63.5554 11.1207Z" fill="white"/>
<path d="M8.68927 59.4095C6.12819 59.4095 4.87813 56.3606 4.57324 54.8361L54.4229 54.3788C55.3643 58.1443 57.4943 59.2634 58.851 59.4095H59.4536C59.28 59.4312 59.0761 59.4337 58.851 59.4095H8.68927Z" fill="#38BFF2"/>
<path d="M19.182 27.8533C17.0227 27.8533 15.2661 29.6061 15.2661 31.7602C15.2661 33.915 17.0227 35.6679 19.182 35.6679C21.3362 35.6679 23.0889 33.915 23.0889 31.7602C23.0889 29.6061 21.3362 27.8533 19.182 27.8533Z" fill="#38BFF2"/>
<path d="M19.182 27.8533C17.0227 27.8533 15.2661 29.6061 15.2661 31.7602C15.2661 33.915 17.0227 35.6679 19.182 35.6679C21.3362 35.6679 23.0889 33.915 23.0889 31.7602C23.0889 29.6061 21.3362 27.8533 19.182 27.8533ZM19.182 34.3648C17.7413 34.3648 16.5691 33.1962 16.5691 31.7602C16.5691 30.3243 17.7413 29.1561 19.182 29.1561C20.6179 29.1561 21.786 30.3243 21.786 31.7602C21.786 33.1962 20.6179 34.3648 19.182 34.3648Z" fill="#1A2E35"/>
<path d="M30.7528 27.8533C28.5935 27.8533 26.8369 29.6061 26.8369 31.7602C26.8369 33.915 28.5935 35.6679 30.7528 35.6679C32.9073 35.6679 34.66 33.915 34.66 31.7602C34.6601 29.6061 32.9073 27.8533 30.7528 27.8533Z" fill="#38BFF2"/>
<path d="M30.7528 27.8533C28.5935 27.8533 26.8369 29.6061 26.8369 31.7602C26.8369 33.915 28.5935 35.6679 30.7528 35.6679C32.9073 35.6679 34.66 33.915 34.66 31.7602C34.6601 29.6061 32.9073 27.8533 30.7528 27.8533ZM30.7528 34.3648C29.3121 34.3648 28.1399 33.1962 28.1399 31.7602C28.1399 30.3243 29.3121 29.1561 30.7528 29.1561C32.1887 29.1561 33.3571 30.3243 33.3571 31.7602C33.3571 33.1962 32.1887 34.3648 30.7528 34.3648Z" fill="#1A2E35"/>
<path d="M42.3246 27.9315C40.1653 27.9315 38.4087 29.6843 38.4087 31.8385C38.4087 33.9933 40.1653 35.7461 42.3246 35.7461C44.4791 35.7461 46.2318 33.9933 46.2318 31.8385C46.2318 29.6843 44.4791 27.9315 42.3246 27.9315Z" fill="#38BFF2"/>
<path d="M42.3246 27.8533C40.1653 27.8533 38.4087 29.6061 38.4087 31.7602C38.4087 33.915 40.1653 35.6679 42.3246 35.6679C44.4791 35.6679 46.2318 33.915 46.2318 31.7602C46.2318 29.6061 44.4791 27.8533 42.3246 27.8533ZM42.3246 34.3648C40.8839 34.3648 39.7117 33.1962 39.7117 31.7602C39.7117 30.3243 40.8839 29.1561 42.3246 29.1561C43.7605 29.1561 44.9289 30.3243 44.9289 31.7602C44.9288 33.1962 43.7605 34.3648 42.3246 34.3648Z" fill="#1A2E35"/>
<path d="M53.8958 35.6679C56.0504 35.6679 57.8031 33.915 57.8031 31.7602C57.8031 29.6059 56.0503 27.8533 53.8958 27.8533C51.7366 27.8533 49.98 29.6061 49.98 31.7602C49.98 33.915 51.7366 35.6679 53.8958 35.6679Z" fill="#38BFF2"/>
<path d="M53.8958 35.6679C56.0504 35.6679 57.8031 33.915 57.8031 31.7602C57.8031 29.6059 56.0503 27.8533 53.8958 27.8533C51.7366 27.8533 49.98 29.6061 49.98 31.7602C49.98 33.915 51.7366 35.6679 53.8958 35.6679ZM53.8958 29.1563C55.3318 29.1563 56.5002 30.3244 56.5002 31.7604C56.5002 33.1963 55.3318 34.365 53.8958 34.365C52.4552 34.365 51.283 33.1963 51.283 31.7604C51.283 30.3243 52.4552 29.1563 53.8958 29.1563Z" fill="#1A2E35"/>
<path d="M19.182 38.8293C17.0227 38.8293 15.2661 40.5822 15.2661 42.737C15.2661 44.8913 17.0227 46.6439 19.182 46.6439C21.3362 46.6439 23.0889 44.8911 23.0889 42.737C23.0889 40.5822 21.3362 38.8293 19.182 38.8293Z" fill="#38BFF2"/>
<path d="M19.182 38.8293C17.0227 38.8293 15.2661 40.5822 15.2661 42.737C15.2661 44.8913 17.0227 46.6439 19.182 46.6439C21.3362 46.6439 23.0889 44.8911 23.0889 42.737C23.0889 40.5822 21.3362 38.8293 19.182 38.8293ZM19.182 45.3409C17.7413 45.3409 16.5691 44.1728 16.5691 42.7368C16.5691 41.3009 17.7413 40.1322 19.182 40.1322C20.6179 40.1322 21.786 41.3009 21.786 42.7368C21.786 44.1728 20.6179 45.3409 19.182 45.3409Z" fill="#1A2E35"/>
<path d="M30.7528 38.8293C28.5935 38.8293 26.8369 40.5822 26.8369 42.737C26.8369 44.8913 28.5935 46.6439 30.7528 46.6439C32.9073 46.6439 34.66 44.8911 34.66 42.737C34.6601 40.5822 32.9073 38.8293 30.7528 38.8293Z" fill="#38BFF2"/>
<path d="M30.7528 38.8293C28.5935 38.8293 26.8369 40.5822 26.8369 42.737C26.8369 44.8913 28.5935 46.6439 30.7528 46.6439C32.9073 46.6439 34.66 44.8911 34.66 42.737C34.6601 40.5822 32.9073 38.8293 30.7528 38.8293ZM30.7528 45.3409C29.3121 45.3409 28.1399 44.1728 28.1399 42.7368C28.1399 41.3009 29.3121 40.1322 30.7528 40.1322C32.1887 40.1322 33.3571 41.3009 33.3571 42.7368C33.3571 44.1728 32.1887 45.3409 30.7528 45.3409Z" fill="#1A2E35"/>
<path d="M42.3245 38.8293C40.1653 38.8293 38.4087 40.5822 38.4087 42.737C38.4087 44.8913 40.1653 46.6439 42.3245 46.6439C44.4791 46.6439 46.2318 44.8911 46.2318 42.737C46.2318 40.5822 44.4791 38.8293 42.3245 38.8293ZM42.3245 45.3409C40.8839 45.3409 39.7117 44.1728 39.7117 42.7368C39.7117 41.3009 40.8839 40.1322 42.3245 40.1322C43.7605 40.1322 44.9289 41.3009 44.9289 42.7368C44.9289 44.1728 43.7605 45.3409 42.3245 45.3409Z" fill="#1A2E35"/>
<path d="M57.8031 42.737C57.8031 40.5822 56.0503 38.8293 53.8958 38.8293C51.7366 38.8293 49.98 40.5822 49.98 42.737C49.98 44.8913 51.7366 46.6439 53.8958 46.6439C56.0504 46.6439 57.8031 44.8911 57.8031 42.737ZM53.8958 45.3409C52.4552 45.3409 51.283 44.1728 51.283 42.7368C51.283 41.3009 52.4552 40.1322 53.8958 40.1322C55.3318 40.1322 56.5002 41.3009 56.5002 42.7368C56.5002 44.1728 55.3318 45.3409 53.8958 45.3409Z" fill="#1A2E35"/>
<path d="M61.5862 7.43102H56.3575V3.90644C56.3575 3.54637 56.0659 3.255 55.7061 3.255C55.3463 3.255 55.0547 3.54637 55.0547 3.90644V7.43102H16.4587V3.90644C16.4587 3.54637 16.1671 3.255 15.8073 3.255C15.4475 3.255 15.1558 3.54637 15.1558 3.90644V7.43102H11.4827C9.75861 7.43102 8.3561 8.83381 8.3561 10.5581C8.35583 16.2883 8.35415 53.6848 8.35415 53.9291H4.16364C3.80386 53.9291 3.51221 54.2204 3.51221 54.5805C3.51221 57.4732 5.69629 59.7191 8.35401 60.0329V62.6699C8.35401 64.394 9.7568 65.7969 11.481 65.7969H61.5863C63.3104 65.7969 64.7133 64.3941 64.7133 62.6699C64.7133 51.1802 64.7133 21.4647 64.7133 10.5581C64.7132 8.83381 63.3104 7.43102 61.5862 7.43102ZM11.4826 8.73403H15.1557V13.9039C15.1557 14.2639 15.4474 14.5553 15.8071 14.5553C16.1669 14.5553 16.4586 14.2639 16.4586 13.9039V8.73403H55.0545V13.9039C55.0545 14.2639 55.3462 14.5553 55.706 14.5553C56.0657 14.5553 56.3574 14.2639 56.3574 13.9039V8.73403H61.586C62.5918 8.73403 63.41 9.55227 63.41 10.5581V19.0731H9.65884V10.5579C9.65884 9.55213 10.4771 8.73403 11.4826 8.73403ZM9.65703 20.3766H63.4103V54.5786C63.4103 56.891 61.5324 58.7723 59.2237 58.7735C59.2216 58.7735 59.2201 58.7724 59.218 58.7724C56.9031 58.7724 55.026 56.8963 55.026 54.5804C55.026 54.2203 54.7343 53.9289 54.3745 53.9289H9.65703V20.3766ZM4.86469 55.2319H53.7611C53.9243 56.6194 54.6051 57.8707 55.666 58.7724H9.0074C6.89786 58.7724 5.16985 57.2184 4.86469 55.2319ZM63.4102 62.6699C63.4102 63.6757 62.592 64.4939 61.5862 64.4939H11.481C10.4753 64.4939 9.65703 63.6758 9.65703 62.6699V60.0767H59.2212C60.8995 60.0767 62.4022 59.3172 63.4103 58.1258V62.6699H63.4102Z" fill="#1A2E35"/>
</svg>
