<svg width="58" height="58" viewBox="0 0 58 58" fill="none" xmlns="http://www.w3.org/2000/svg">
<g clip-path="url(#clip0_23_2)">
<path d="M57.103 11.7017V54.4721C57.103 55.9311 55.9251 57.1031 54.4662 57.1031H3.53382C2.07487 57.1031 0.896973 55.9311 0.896973 54.4721V11.7017H57.103Z" fill="white"/>
<path d="M57.103 3.53382V11.7016H0.896973V3.53382C0.896973 2.07487 2.07487 0.896973 3.53382 0.896973H54.4662C55.9251 0.896973 57.103 2.07487 57.103 3.53382Z" fill="#38BFF2"/>
<path d="M8.11732 6.29652C8.11732 7.05765 7.4996 7.67549 6.73835 7.67549C5.9771 7.67549 5.35938 7.05777 5.35938 6.29652C5.35938 5.53527 5.9771 4.9231 6.73835 4.9231C7.4996 4.9231 8.11732 5.53538 8.11732 6.29652Z" fill="#D7E9FF"/>
<path d="M13.9479 6.29652C13.9479 7.05765 13.3302 7.67549 12.5689 7.67549C11.8077 7.67549 11.1899 7.05777 11.1899 6.29652C11.1899 5.53527 11.8077 4.9231 12.5689 4.9231C13.3302 4.9231 13.9479 5.53538 13.9479 6.29652Z" fill="#D7E9FF"/>
<path d="M19.7789 6.29652C19.7789 7.05765 19.1612 7.67549 18.4 7.67549C17.6387 7.67549 17.021 7.05777 17.021 6.29652C17.021 5.53527 17.6387 4.9231 18.4 4.9231C19.1612 4.9231 19.7789 5.53538 19.7789 6.29652Z" fill="#D7E9FF"/>
<path d="M52.6399 6.29561C52.6399 7.0572 52.0174 7.67232 51.2559 7.67232H36.6614C35.8998 7.67232 35.2847 7.0572 35.2847 6.29561C35.2847 5.53402 35.8998 4.92627 36.6614 4.92627H51.256C52.0174 4.92627 52.6399 5.53402 52.6399 6.29561Z" fill="#D7E9FF"/>
<path d="M54.466 0.29895H3.5338C1.74996 0.29895 0.298828 1.74997 0.298828 3.53392V54.4722C0.298828 56.2525 1.74985 57.7011 3.5338 57.7011H54.466C56.2498 57.7011 57.7009 56.2526 57.7009 54.4722C57.7009 48.0722 57.7009 11.1231 57.7009 3.53392C57.7009 1.74997 56.2499 0.29895 54.466 0.29895V0.29895ZM1.49474 3.53392C1.49474 2.40961 2.40971 1.49486 3.5338 1.49486H54.466C55.5901 1.49486 56.505 2.40961 56.505 3.53392V11.1036H1.49474V3.53392ZM56.505 54.4722C56.505 55.593 55.5901 56.5051 54.466 56.5051H3.5338C2.40971 56.5051 1.49474 55.593 1.49474 54.4722V12.2995H56.505V54.4722Z" fill="#1A2E35"/>
<path d="M8.09536 35.0121C9.25558 35.0121 10.1992 35.9455 10.1992 37.0926V42.3091C10.1992 44.1283 11.6689 45.6085 13.4751 45.6085C13.8056 45.6085 14.073 45.3409 14.073 45.0106C14.073 44.6804 13.8055 44.4127 13.4751 44.4127C12.3282 44.4127 11.3951 43.4691 11.3951 42.3091V37.0926C11.3951 35.9776 10.8311 34.9908 9.97152 34.3987C10.8176 33.7978 11.3718 32.8139 11.3718 31.7127V26.4958C11.3718 25.3358 12.3049 24.3922 13.4523 24.3922C13.7829 24.3922 14.0502 24.1245 14.0502 23.7943C14.0502 23.4641 13.7828 23.1964 13.4523 23.1964C11.6457 23.1964 10.1759 24.6767 10.1759 26.4958V31.7127C10.1759 32.8542 9.23814 33.7978 8.08607 33.8163C7.30035 33.8288 7.31111 35.0121 8.09536 35.0121Z" fill="#1A2E35"/>
<path d="M46.6046 37.0926V42.3091C46.6046 43.4691 45.6715 44.4127 44.5247 44.4127C44.1941 44.4127 43.9268 44.6804 43.9268 45.0106C43.9268 45.3408 44.1942 45.6085 44.5247 45.6085C46.3307 45.6085 47.8005 44.1283 47.8005 42.3091V37.0926C47.8005 35.9455 48.7441 35.0121 49.9044 35.0121C50.6895 35.0121 50.6984 33.8288 49.9137 33.8162C48.7616 33.7978 47.8239 32.8542 47.8239 31.7125V26.4957C47.8239 24.6765 46.3541 23.1963 44.5474 23.1963C44.2169 23.1963 43.9495 23.464 43.9495 23.7942C43.9495 24.1244 44.217 24.3921 44.5474 24.3921C45.6948 24.3921 46.6279 25.3357 46.6279 26.4957V31.7125C46.6279 32.8139 47.1821 33.7977 48.0282 34.3986C47.1687 34.9908 46.6046 35.9776 46.6046 37.0926Z" fill="#1A2E35"/>
<path d="M24.9856 44.7976C25.2936 44.9172 25.6396 44.7634 25.7587 44.4554L33.3567 24.7807C33.4759 24.4727 33.3223 24.1264 33.0145 24.0075C32.708 23.8887 32.3605 24.042 32.2414 24.3498L24.6434 44.0244C24.5243 44.3325 24.6778 44.6788 24.9856 44.7976Z" fill="#1A2E35"/>
<path d="M40.9984 34.4116L34.1052 39.0701C33.8313 39.2552 33.7595 39.6269 33.9446 39.9005C34.1301 40.1759 34.5033 40.2446 34.7744 40.0611L42.3993 34.908C42.7519 34.6697 42.7479 34.1538 42.4004 33.9177L34.7755 28.7447C34.5034 28.5596 34.1309 28.6305 33.9452 28.9038C33.7595 29.1771 33.8308 29.5491 34.104 29.7344L40.9984 34.4116Z" fill="#1A2E35"/>
<path d="M15.598 34.9064L23.1511 40.0595C23.4227 40.2455 23.796 40.1753 23.982 39.9024C24.1682 39.6297 24.0976 39.2577 23.8249 39.0715L16.9947 34.4114L23.826 29.7327C24.0981 29.5461 24.1675 29.1739 23.9813 28.9014C23.7945 28.629 23.4236 28.5596 23.1498 28.7458L15.5968 33.9188C15.4339 34.0304 15.3369 34.2155 15.3369 34.4128C15.3369 34.6101 15.4351 34.7951 15.598 34.9064Z" fill="#1A2E35"/>
<path d="M6.73825 4.32507C5.6486 4.32507 4.76172 5.20946 4.76172 6.29639C4.76172 7.38661 5.64871 8.27326 6.73825 8.27326C7.82847 8.27326 8.71546 7.38661 8.71546 6.29639C8.71535 5.20946 7.82836 4.32507 6.73825 4.32507ZM6.73825 7.07747C6.30789 7.07747 5.95752 6.72709 5.95752 6.29651C5.95752 5.86876 6.30789 5.5211 6.73825 5.5211C7.16917 5.5211 7.51955 5.86887 7.51955 6.29651C7.51944 6.72709 7.16917 7.07747 6.73825 7.07747Z" fill="#1A2E35"/>
<path d="M12.5695 4.32507C11.4793 4.32507 10.5923 5.20946 10.5923 6.29639C10.5923 7.38661 11.4793 8.27326 12.5695 8.27326C13.6591 8.27326 14.546 7.38661 14.546 6.29639C14.546 5.20946 13.659 4.32507 12.5695 4.32507ZM12.5695 7.07747C12.1386 7.07747 11.7882 6.72709 11.7882 6.29651C11.7882 5.86876 12.1386 5.5211 12.5695 5.5211C12.9999 5.5211 13.3502 5.86887 13.3502 6.29651C13.3502 6.72709 12.9999 7.07747 12.5695 7.07747Z" fill="#1A2E35"/>
<path d="M18.4001 4.32507C17.3098 4.32507 16.4229 5.20946 16.4229 6.29639C16.4229 7.38661 17.3098 8.27326 18.4001 8.27326C19.4897 8.27326 20.3766 7.38661 20.3766 6.29639C20.3766 5.20946 19.4896 4.32507 18.4001 4.32507ZM18.4001 7.07747C17.9691 7.07747 17.6188 6.72709 17.6188 6.29651C17.6188 5.86876 17.9691 5.5211 18.4001 5.5211C18.8304 5.5211 19.1808 5.86887 19.1808 6.29651C19.1808 6.72709 18.8304 7.07747 18.4001 7.07747Z" fill="#1A2E35"/>
<path d="M51.2559 4.32837H36.6614C35.5724 4.32837 34.6865 5.21094 34.6865 6.29561C34.6865 7.38458 35.5724 8.27044 36.6614 8.27044H51.2559C52.3484 8.27044 53.2378 7.38458 53.2378 6.29561C53.2378 5.21094 52.3484 4.32837 51.2559 4.32837ZM51.2559 7.07453H36.6614C36.2316 7.07453 35.8824 6.72506 35.8824 6.29561C35.8824 5.86322 36.2247 5.52428 36.6614 5.52428H51.2559C51.6893 5.52428 52.0419 5.87024 52.0419 6.29561C52.0419 6.72506 51.6893 7.07453 51.2559 7.07453Z" fill="#1A2E35"/>
</g>
<defs>
<clipPath id="clip0_23_2">
<rect width="58" height="58" fill="white"/>
</clipPath>
</defs>
</svg>
