<svg width="60" height="60" viewBox="0 0 60 60" fill="none" xmlns="http://www.w3.org/2000/svg">
<path d="M39.2662 4.02055V55.9793C39.2662 57.6874 37.8815 59.0721 36.1734 59.0721H8.2476C6.53947 59.0721 5.15479 57.6874 5.15479 55.9793V4.02055C5.15479 2.31242 6.53947 0.927734 8.2476 0.927734H36.1734C37.8815 0.927852 39.2662 2.31254 39.2662 4.02055Z" fill="white"/>
<path d="M30.8146 0.927856V3.39711C30.8146 4.76364 29.7068 5.8713 28.3404 5.8713H16.0806C14.7141 5.8713 13.6064 4.76352 13.6064 3.39711V0.927856H30.8146Z" fill="#38BFF2"/>
<path d="M54.845 20.7649V40.4721C54.845 41.8387 53.7373 42.9463 52.3709 42.9463H22.21V18.2906H52.3707C53.7373 18.2906 54.845 19.3984 54.845 20.7649Z" fill="#38BFF2"/>
<path d="M22.21 23.3474H54.845V29.4781H22.21V23.3474Z" fill="#D7E9FF"/>
<path d="M14.056 54.7422C13.7144 54.7422 13.4375 55.0189 13.4375 55.3607C13.4375 55.7027 13.7144 55.9792 14.056 55.9792H30.3654C30.707 55.9792 30.9839 55.7025 30.9839 55.3607C30.9839 55.0187 30.707 54.7422 30.3654 54.7422H14.056Z" fill="#1A2E35"/>
<path d="M26.6971 4.01816H27.8016C28.1432 4.01816 28.4201 3.74148 28.4201 3.39964C28.4201 3.05781 28.1432 2.78113 27.8016 2.78113H26.6971C26.3555 2.78113 26.0786 3.05781 26.0786 3.39964C26.0786 3.74148 26.3555 4.01816 26.6971 4.01816Z" fill="#1A2E35"/>
<path d="M16.6195 4.01816H23.7982C24.1398 4.01816 24.4167 3.74148 24.4167 3.39964C24.4167 3.05781 24.1398 2.78113 23.7982 2.78113H16.6195C16.2779 2.78113 16.001 3.05781 16.001 3.39964C16.001 3.74148 16.2779 4.01816 16.6195 4.01816Z" fill="#1A2E35"/>
<path d="M52.3708 17.6723H39.8849V4.02053C39.8849 1.97397 38.2202 0.309204 36.1736 0.309204C30.0917 0.309204 14.3337 0.309204 8.24795 0.309204C6.20139 0.309204 4.53662 1.97397 4.53662 4.02053V55.9792C4.53662 58.0258 6.20139 59.6906 8.24795 59.6906H36.1735C38.2201 59.6906 39.8848 58.0258 39.8848 55.9792V43.5647H52.3707C54.076 43.5647 55.4635 42.1772 55.4635 40.4719C55.4635 33.2803 55.4635 27.8474 55.4635 20.7651C55.4636 19.0598 54.076 17.6723 52.3708 17.6723ZM54.2265 20.7651V22.7289H22.8286V18.9094H52.3708C53.3941 18.9094 54.2265 19.7418 54.2265 20.7651ZM54.2265 28.8595H22.8286V23.966H54.2265V28.8595ZM30.1961 1.54635V3.39721C30.1961 4.42049 29.3637 5.25288 28.3404 5.25288H16.0808C15.0575 5.25288 14.2251 4.42049 14.2251 3.39721V1.54635H30.1961ZM38.6478 55.9794C38.6478 57.3439 37.5378 58.4535 36.1736 58.4535H8.24783C6.88353 58.4535 5.77365 57.3439 5.77365 55.9794V4.02053C5.77365 2.656 6.88365 1.54635 8.24783 1.54635H12.9878V3.39721C12.9878 5.10252 14.3753 6.49002 16.0806 6.49002H28.3403C30.0456 6.49002 31.4331 5.10252 31.4331 3.39721V1.54635H36.1735C37.5378 1.54635 38.6477 2.656 38.6477 4.02053V17.6723H22.8285V14.8822C22.8285 14.5402 22.5516 14.2637 22.21 14.2637C21.8684 14.2637 21.5915 14.5403 21.5915 14.8822V46.3482C21.5915 46.6901 21.8684 46.9667 22.21 46.9667C22.5516 46.9667 22.8285 46.69 22.8285 46.3482V43.5646H38.6477V55.9794H38.6478ZM52.3708 42.3276H22.8286V34.7671H43.2788C43.6204 34.7671 43.8973 34.4905 43.8973 34.1486C43.8973 33.8067 43.6204 33.5301 43.2788 33.5301H22.8286V30.0966H54.2265V40.4719C54.2265 41.4952 53.3941 42.3276 52.3708 42.3276Z" fill="#1A2E35"/>
<path d="M43.2787 37.657H41.5067C41.1651 37.657 40.8882 37.9337 40.8882 38.2755C40.8882 38.6175 41.1651 38.894 41.5067 38.894H43.2787C43.6203 38.894 43.8972 38.6173 43.8972 38.2755C43.8972 37.9337 43.6203 37.657 43.2787 37.657Z" fill="#1A2E35"/>
<path d="M38.2133 37.657H36.4413C36.0997 37.657 35.8228 37.9337 35.8228 38.2755C35.8228 38.6175 36.0997 38.894 36.4413 38.894H38.2133C38.5549 38.894 38.8318 38.6173 38.8318 38.2755C38.8318 37.9337 38.5549 37.657 38.2133 37.657Z" fill="#1A2E35"/>
<path d="M33.1478 37.657H31.3758C31.0342 37.657 30.7573 37.9337 30.7573 38.2755C30.7573 38.6175 31.0342 38.894 31.3758 38.894H33.1478C33.4894 38.894 33.7663 38.6173 33.7663 38.2755C33.7665 37.9337 33.4894 37.657 33.1478 37.657Z" fill="#1A2E35"/>
<path d="M28.0829 37.657H26.3109C25.9693 37.657 25.6924 37.9337 25.6924 38.2755C25.6924 38.6175 25.9693 38.894 26.3109 38.894H28.0829C28.4245 38.894 28.7014 38.6173 28.7014 38.2755C28.7015 37.9337 28.4245 37.657 28.0829 37.657Z" fill="#1A2E35"/>
</svg>
