<svg width="59" height="59" viewBox="0 0 59 59" fill="none" xmlns="http://www.w3.org/2000/svg">
<g clip-path="url(#clip0_25_108)">
<path d="M49.9155 49.922C61.1942 38.6433 61.1942 20.3567 49.9155 9.07798C38.6367 -2.20079 20.3502 -2.20078 9.07143 9.07798C-2.20734 20.3568 -2.20734 38.6432 9.07143 49.922C20.3502 61.2008 38.6367 61.2008 49.9155 49.922Z" fill="#38BFF2"/>
<path d="M29.4998 52.2396C42.0585 52.2396 52.2393 42.0588 52.2393 29.5C52.2393 16.9413 42.0585 6.7605 29.4998 6.7605C16.9411 6.7605 6.76025 16.9413 6.76025 29.5C6.76025 42.0588 16.9411 52.2396 29.4998 52.2396Z" fill="white"/>
<path d="M29.5 0C13.2336 0 0 13.2336 0 29.5C0 45.7664 13.2336 59 29.5 59C45.7664 59 59 45.7664 59 29.5C59 13.2336 45.7664 0 29.5 0ZM29.5 57.7708C13.9116 57.7708 1.22921 45.0884 1.22921 29.5C1.22921 13.9116 13.9116 1.22921 29.5 1.22921C45.0884 1.22921 57.7708 13.9116 57.7708 29.5C57.7708 45.0884 45.0884 57.7708 29.5 57.7708Z" fill="#1A2E35"/>
<path d="M29.5002 6.14575C16.6228 6.14575 6.146 16.6225 6.146 29.5C6.146 42.3774 16.6228 52.8542 29.5002 52.8542C42.3776 52.8542 52.8544 42.3774 52.8544 29.5C52.8544 16.6225 42.3776 6.14575 29.5002 6.14575ZM29.5002 51.625C17.3003 51.625 7.3752 41.6998 7.3752 29.5C7.3752 17.3001 17.3003 7.37496 29.5002 7.37496C41.7001 7.37496 51.6252 17.3001 51.6252 29.5C51.6252 41.6998 41.7001 51.625 29.5002 51.625Z" fill="#1A2E35"/>
<path d="M31.9606 16.2147H23.787C23.7766 16.2142 23.7678 16.2087 23.7572 16.2087C23.4179 16.2087 23.1427 16.4839 23.1427 16.8233V16.8293V28.5813H20.8558C20.5164 28.5813 20.2412 28.8565 20.2412 29.1959C20.2412 29.5352 20.5164 29.8104 20.8558 29.8104H23.1427V32.412H20.8558C20.5164 32.412 20.2412 32.6871 20.2412 33.0265C20.2412 33.3659 20.5164 33.641 20.8558 33.641H23.1427V42.1765C23.1427 42.5158 23.4179 42.791 23.7572 42.791C24.0966 42.791 24.3718 42.5158 24.3718 42.1765V33.641H35.4622C35.8015 33.641 36.0767 33.3659 36.0767 33.0265C36.0767 32.6871 35.8015 32.412 35.4622 32.412H24.3719V29.8104H25.4079H31.5303C35.2994 29.8104 38.4653 27.0646 38.7375 23.5593C38.7375 23.559 38.7375 23.559 38.7375 23.559C39.0536 19.4844 35.8367 16.2147 31.9606 16.2147ZM37.512 23.4642V23.4639C37.2893 26.3337 34.6618 28.5813 31.5303 28.5813H25.4079H24.3719V17.4438H31.9606C35.1346 17.4439 37.7717 20.1178 37.512 23.4642Z" fill="#1A2E35"/>
</g>
<defs>
<clipPath id="clip0_25_108">
<rect width="59" height="59" fill="white"/>
</clipPath>
</defs>
</svg>
