<svg width="19" height="19" viewBox="0 0 19 19" fill="none" xmlns="http://www.w3.org/2000/svg">
<path d="M13.4009 0.686523H5.21216C2.54708 0.686523 0.378906 2.85467 0.378906 5.51976V13.7086C0.378906 16.3736 2.54708 18.5418 5.21216 18.5418H13.4011C16.0659 18.5418 18.2341 16.3736 18.2341 13.7086V5.51976C18.2341 2.85467 16.0659 0.686523 13.4009 0.686523ZM9.30652 14.4963C6.61446 14.4963 4.42438 12.3062 4.42438 9.61414C4.42438 6.92205 6.61446 4.73198 9.30652 4.73198C11.9986 4.73198 14.1888 6.92205 14.1888 9.61414C14.1888 12.3062 11.9986 14.4963 9.30652 14.4963ZM14.3054 5.88336C13.5099 5.88336 12.8628 5.23628 12.8628 4.44074C12.8628 3.64519 13.5099 2.99797 14.3054 2.99797C15.101 2.99797 15.7481 3.64519 15.7481 4.44074C15.7481 5.23628 15.101 5.88336 14.3054 5.88336Z" fill="white"/>
<path d="M9.30659 5.77881C7.19182 5.77881 5.47119 7.49932 5.47119 9.61421C5.47119 11.7289 7.19182 13.4496 9.30659 13.4496C11.4215 13.4496 13.1419 11.7289 13.1419 9.61421C13.1419 7.49932 11.4215 5.77881 9.30659 5.77881Z" fill="white"/>
<path d="M14.3055 4.04492C14.0873 4.04492 13.9097 4.22256 13.9097 4.44078C13.9097 4.65903 14.0873 4.83666 14.3055 4.83666C14.5238 4.83666 14.7016 4.65915 14.7016 4.44078C14.7016 4.22242 14.5238 4.04492 14.3055 4.04492Z" fill="white"/>
</svg>
