<svg width="19" height="18" viewBox="0 0 19 18" fill="none" xmlns="http://www.w3.org/2000/svg">
<path d="M0.562486 7.90834C0.25183 7.90834 0 8.14677 0 8.44082V16.2616C0 16.5557 0.251867 16.7941 0.562486 16.7941H3.9514V7.90834H0.562486Z" fill="#F15525"/>
<path d="M19 10.8488C19 10.1728 18.6163 9.58008 18.0443 9.25545C18.2635 8.95588 18.392 8.59247 18.392 8.20129C18.392 7.17778 17.5124 6.34507 16.4312 6.34507H12.2919C12.4188 5.80085 12.5923 4.98421 12.7131 4.12931C13.0275 1.90459 12.8126 0.670784 12.0369 0.246483C11.5533 -0.0179975 11.0319 -0.071646 10.5687 0.0952759C10.2109 0.224299 9.72768 0.541514 9.4523 1.32005L8.36439 4.01657C7.81286 5.30599 6.12388 6.65969 5.07642 7.4082V17.0297C7.01775 17.6736 9.04353 18 11.1102 18H15.6204C16.7016 18 17.5813 17.1673 17.5813 16.1438C17.5813 15.7854 17.4734 15.4503 17.2868 15.1663C17.9404 14.8649 18.3919 14.2295 18.3919 13.4963C18.3919 13.1051 18.2634 12.7417 18.0443 12.4421C18.6163 12.1175 19 11.5247 19 10.8488Z" fill="#F15525"/>
</svg>
