<svg width="91" height="91" viewBox="0 0 91 91" fill="none" xmlns="http://www.w3.org/2000/svg">
<path d="M89.593 44.7762C89.593 51.7491 83.9499 57.3921 76.9771 57.3921V32.1245C83.9501 32.1243 89.593 37.7854 89.593 44.7762Z" fill="white"/>
<path d="M73.7906 6.16992C72.0307 6.16992 70.604 7.5966 70.604 9.35652V80.1606C70.604 81.9205 72.0307 83.3472 73.7906 83.3472C75.5505 83.3472 76.9772 81.9205 76.9772 80.1606V9.35652C76.9772 7.5966 75.5505 6.16992 73.7906 6.16992Z" fill="white"/>
<path d="M70.6073 11.6543V77.8627C63.5179 65.0068 46.3304 57.4763 32.3936 56.7848V32.7325C46.3304 32.0408 63.5179 24.5105 70.6073 11.6543Z" fill="#38BFF2"/>
<path d="M32.3893 32.7289V56.791C32.3893 58.2169 31.2333 59.3729 29.8074 59.3729H9.79679C8.37083 59.3729 7.21484 58.2169 7.21484 56.791V32.7289C7.21484 31.303 8.37083 30.147 9.79679 30.147H29.8074C31.2333 30.1468 32.3893 31.303 32.3893 32.7289Z" fill="white"/>
<path d="M3.78069 35.8467H7.2147V53.6729H3.78069C2.46777 53.6729 1.40723 52.6125 1.40723 51.2994V38.2201C1.4074 36.9072 2.46777 35.8467 3.78069 35.8467Z" fill="#38BFF2"/>
<path d="M25.5083 27.6447V30.1429H14.1006V27.6447C14.1006 26.2759 15.2102 25.1665 16.5787 25.1665H23.0303C24.3989 25.1665 25.5083 26.2759 25.5083 27.6447Z" fill="white"/>
<path d="M18.3905 83.6098L25.8401 59.373H13.7632V83.1018C13.7632 84.0568 14.5374 84.831 15.4924 84.831H16.7377C17.4968 84.8308 18.1673 84.3357 18.3905 83.6098Z" fill="#38BFF2"/>
<path d="M90.5312 44.7765C90.5312 37.6006 84.951 31.7206 77.9157 31.2338V9.35595C77.9157 7.08202 76.0652 5.23145 73.7904 5.23145C71.5164 5.23145 69.6659 7.08202 69.6659 9.35595V11.4056C62.7632 23.6687 46.2956 30.8353 33.169 31.7423C32.739 30.2838 31.403 29.2091 29.8073 29.2091H26.4469V27.6443C26.4469 25.7607 24.9141 24.2279 23.0305 24.2279H16.5789C14.6953 24.2279 13.1625 25.7607 13.1625 27.6443V29.2091H9.79674C7.85624 29.2091 6.27689 30.7886 6.27689 32.7289V34.9085H3.78114C1.95528 34.9085 0.469238 36.3945 0.469238 38.2204V51.2995C0.469238 53.1253 1.95528 54.6105 3.78114 54.6105H6.27671V56.7909C6.27671 58.7314 7.85624 60.3108 9.79656 60.3108H12.8255V83.102C12.8255 84.5724 14.022 85.7689 15.4924 85.7689H16.7374C17.9165 85.7689 18.9408 85.0121 19.287 83.8853L26.5336 60.3108H29.8073C31.4039 60.3108 32.7408 59.2348 33.1697 57.7749C46.2961 58.682 62.7641 65.8488 69.6655 78.1105V80.1602C69.6655 82.4341 71.5161 84.2847 73.79 84.2847C76.0648 84.2847 77.9154 82.4341 77.9154 80.1602V58.2825C84.951 57.7971 90.5312 51.9329 90.5312 44.7765ZM15.0388 27.6443C15.0388 26.7951 15.7297 26.1042 16.5789 26.1042H23.0305C23.8797 26.1042 24.5706 26.7951 24.5706 27.6443V29.2044H15.0388V27.6443ZM3.78114 52.7341C2.98951 52.7341 2.34558 52.09 2.34558 51.2995V38.2204C2.34558 37.4287 2.98969 36.7848 3.78114 36.7848H6.27671V52.7341H3.78114ZM17.4933 83.3338V83.3347C17.3908 83.6681 17.0874 83.8926 16.7374 83.8926H15.4924C15.0563 83.8926 14.7019 83.538 14.7019 83.102V60.3108H24.5707L17.4933 83.3338ZM31.451 56.7909C31.451 57.697 30.7136 58.4345 29.8075 58.4345C22.7376 58.4345 16.8704 58.4345 9.79674 58.4345C8.89065 58.4345 8.15323 57.697 8.15323 56.7909C8.15323 50.7384 8.15323 38.7815 8.15323 32.7291C8.15323 31.823 8.89065 31.0856 9.79674 31.0856H29.8075C30.7136 31.0856 31.451 31.823 31.451 32.7291V56.7909ZM33.3318 55.9014V33.6158C46.0187 32.7254 61.7259 26.1664 69.6657 14.9181V74.598C61.727 63.3508 46.0188 56.7908 33.3318 55.9014ZM76.0394 80.1602C76.0394 81.3997 75.0308 82.4083 73.7902 82.4083C72.5507 82.4083 71.542 81.3997 71.542 80.1602C71.5466 -6.92025 71.542 15.7016 71.542 9.35595C71.542 8.11643 72.5507 7.10779 73.7902 7.10779C75.0306 7.10779 76.0394 8.11643 76.0394 9.35595V80.1602ZM77.9156 56.4163V33.1C83.9173 33.5801 88.6548 38.6336 88.6548 44.7765C88.6548 50.8999 83.9173 55.9371 77.9156 56.4163Z" fill="#1A2E35"/>
<path d="M28.033 33.8862H11.5714C11.0528 33.8862 10.6333 34.3059 10.6333 34.8243C10.6333 35.3428 11.0529 35.7624 11.5714 35.7624H28.033C28.5516 35.7624 28.971 35.3428 28.971 34.8243C28.971 34.3059 28.5514 33.8862 28.033 33.8862Z" fill="#1A2E35"/>
<path d="M28.033 38.8545H11.5714C11.0528 38.8545 10.6333 39.2741 10.6333 39.7926C10.6333 40.311 11.0529 40.7307 11.5714 40.7307H28.033C28.5516 40.7307 28.971 40.311 28.971 39.7926C28.971 39.2741 28.5514 38.8545 28.033 38.8545Z" fill="#1A2E35"/>
<path d="M28.033 43.8218H11.5714C11.0528 43.8218 10.6333 44.2414 10.6333 44.7599C10.6333 45.2783 11.0529 45.6979 11.5714 45.6979H28.033C28.5516 45.6979 28.971 45.2783 28.971 44.7599C28.971 44.2414 28.5514 43.8218 28.033 43.8218Z" fill="#1A2E35"/>
<path d="M28.033 48.7891H11.5714C11.0528 48.7891 10.6333 49.2087 10.6333 49.7271C10.6333 50.2458 11.0529 50.6652 11.5714 50.6652H28.033C28.5516 50.6652 28.971 50.2456 28.971 49.7271C28.971 49.2087 28.5514 48.7891 28.033 48.7891Z" fill="#1A2E35"/>
<path d="M28.033 53.7568H11.5714C11.0528 53.7568 10.6333 54.1765 10.6333 54.6949C10.6333 55.2136 11.0529 55.633 11.5714 55.633H28.033C28.5516 55.633 28.971 55.2134 28.971 54.6949C28.971 54.1763 28.5514 53.7568 28.033 53.7568Z" fill="#1A2E35"/>
</svg>
