<svg width="20" height="12" viewBox="0 0 20 12" fill="none" xmlns="http://www.w3.org/2000/svg">
<path fill-rule="evenodd" clip-rule="evenodd" d="M9.84959 10.9579H10.9649C10.9649 10.9579 11.3018 10.9211 11.4738 10.736C11.6322 10.5663 11.6271 10.2475 11.6271 10.2475C11.6271 10.2475 11.6053 8.75492 12.2999 8.53507C12.9846 8.31863 13.8639 9.97771 14.7959 10.6156C15.5005 11.0983 16.036 10.9925 16.036 10.9925L18.528 10.9579C18.528 10.9579 19.8314 10.8779 19.2133 9.85562C19.1628 9.77194 18.8535 9.09949 17.3607 7.71754C15.7982 6.27117 16.0074 6.50511 17.8896 4.00321C19.0359 2.47953 19.4941 1.54929 19.3509 1.15087C19.2143 0.771405 18.3713 0.871718 18.3713 0.871718L15.5657 0.889137C15.5657 0.889137 15.3577 0.860857 15.2034 0.952802C15.0527 1.043 14.9556 1.2532 14.9556 1.2532C14.9556 1.2532 14.5116 2.43228 13.9193 3.43501C12.67 5.55088 12.1705 5.66256 11.9663 5.53119C11.4913 5.22498 11.6099 4.30108 11.6099 3.6447C11.6099 1.59427 11.9217 0.739322 11.0027 0.518017C10.6977 0.444497 10.4733 0.396 9.69327 0.388155C8.69217 0.377796 7.84483 0.391192 7.36505 0.625632C7.04589 0.781523 6.79966 1.12891 6.94962 1.14886C7.13505 1.17362 7.55503 1.26179 7.77771 1.5642C8.06523 1.95428 8.05509 2.83045 8.05509 2.83045C8.05509 2.83045 8.22026 5.24418 7.66929 5.54406C7.29109 5.74971 6.7723 5.32983 5.65846 3.41026C5.08776 2.42696 4.65685 1.34012 4.65685 1.34012C4.65685 1.34012 4.57378 1.13699 4.42557 1.02835C4.24572 0.896721 3.99443 0.854781 3.99443 0.854781L1.32829 0.872221C1.32829 0.872221 0.928045 0.883344 0.781126 1.0569C0.650419 1.21126 0.770746 1.5306 0.770746 1.5306C0.770746 1.5306 2.85805 6.40101 5.2215 8.8555C7.38862 11.1058 9.84959 10.9579 9.84959 10.9579Z" fill="white"/>
</svg>
