<svg width="21" height="15" viewBox="0 0 21 15" fill="none" xmlns="http://www.w3.org/2000/svg">
<path d="M19.473 1.66979C18.7635 0.82643 17.4537 0.482422 14.9521 0.482422H5.87164C3.31286 0.482422 1.98083 0.848617 1.27405 1.7465C0.584961 2.62193 0.584961 3.91181 0.584961 5.69703V9.09964C0.584961 12.5583 1.40256 14.3142 5.87164 14.3142H14.9521C17.1215 14.3142 18.3235 14.0107 19.1013 13.2664C19.8987 12.5031 20.2391 11.2569 20.2391 9.09964V5.69703C20.2391 3.81436 20.1857 2.51687 19.473 1.66979ZM13.2029 7.8681L9.0795 10.0231C8.98731 10.0713 8.8865 10.0952 8.78581 10.0952C8.67184 10.0952 8.5581 10.0646 8.45735 10.0035C8.26766 9.88859 8.15182 9.683 8.15182 9.46121V5.16497C8.15182 4.94358 8.26734 4.73817 8.45666 4.62316C8.64603 4.50814 8.88156 4.50029 9.07803 4.60236L13.2015 6.74351C13.4113 6.85242 13.543 7.06901 13.5434 7.30529C13.5436 7.54179 13.4125 7.75867 13.2029 7.8681Z" fill="white"/>
</svg>
